<?xml version="1.0" encoding="UTF-8"?>
<svg id="Ephys" xmlns="http://www.w3.org/2000/svg" version="1.1" xmlns:xlink="http://www.w3.org/1999/xlink" viewBox="0 0 533 707.1">
  <!-- Generator: Adobe Illustrator 29.0.0, SVG Export Plug-In . SVG Version: 2.1.0 Build 186)  -->
  <defs>
    <style>
      .st0, .st1, .st2, .st3, .st4, .st5, .st6, .st7, .st8 {
        fill: none;
      }

      .st0, .st1, .st2, .st3, .st9, .st10, .st11, .st6, .st12, .st13, .st7, .st8 {
        stroke: #000;
      }

      .st0, .st6 {
        stroke-linejoin: round;
      }

      .st0, .st6, .st12, .st13, .st8 {
        stroke-linecap: square;
      }

      .st1, .st2, .st3, .st4, .st9, .st10, .st11, .st12, .st13, .st7, .st8 {
        stroke-miterlimit: 10;
      }

      .st1, .st2, .st9, .st10, .st11, .st6, .st12, .st13, .st8 {
        stroke-width: .5px;
      }

      .st2 {
        stroke-dasharray: 2 1;
      }

      .st14, .st15, .st16, .st17, .st18, .st19, .st20, .st21, .st22 {
        font-family: ArialMT, Arial;
      }

      .st14, .st15, .st22 {
        font-size: 10px;
      }

      .st15 {
        fill: #ff23ff;
      }

      .st23 {
        fill: #545454;
        opacity: .4;
      }

      .st4 {
        stroke: #fff;
      }

      .st16 {
        fill: #ba0000;
      }

      .st16, .st18, .st19, .st20 {
        font-size: 12px;
      }

      .st16, .st24 {
        isolation: isolate;
      }

      .st25, .st9, .st12 {
        fill: #ccc;
      }

      .st26 {
        fill: #ff9700;
      }

      .st26, .st27, .st28 {
        opacity: .2;
      }

      .st17 {
        font-size: 14px;
      }

      .st10 {
        fill: gray;
      }

      .st29 {
        clip-path: url(#clippath-1);
      }

      .st19, .st30, .st22 {
        fill: #16dd00;
      }

      .st27 {
        fill: #5a43ff;
      }

      .st28 {
        fill: #03ff7b;
      }

      .st24 {
        fill: url(#linear-gradient);
        opacity: .5;
      }

      .st20, .st13 {
        fill: #fff;
      }

      .st21 {
        font-size: 16.7px;
      }

      .st7 {
        stroke-width: 3px;
      }

      .st31 {
        clip-path: url(#clippath);
      }
    </style>
    <linearGradient id="linear-gradient" x1="398.5" y1="204.9" x2="398.5" y2="218.2" gradientUnits="userSpaceOnUse">
      <stop offset="0" stop-color="#fff"/>
      <stop offset=".1" stop-color="#f6d2db"/>
      <stop offset=".3" stop-color="#eb9cb0"/>
      <stop offset=".5" stop-color="#e26f8c"/>
      <stop offset=".6" stop-color="#db4d70"/>
      <stop offset=".8" stop-color="#d6345c"/>
      <stop offset=".9" stop-color="#d32550"/>
      <stop offset="1" stop-color="#d2204c"/>
    </linearGradient>
    <clipPath id="clippath">
      <rect class="st5" x="61" y="212.4" width="170.3" height="102.7"/>
    </clipPath>
    <clipPath id="clippath-1">
      <rect class="st5" x="303.6" y="12" width="219.9" height="161.1"/>
    </clipPath>
  </defs>
  <path class="st24" d="M272.3,258.6h252.4v-56.6h-252.4v56.6Z"/>
  <path class="st0" d="M272.2,243.8l.2-.5.2-.5h.2l.2-1h.4l.2-1.4v.5h.2l.2,1.9h0l.2,1.4h0l.2,1h0l.2,1.9.4.5.2,1.4h0l.2-1h.2l.2,1.4h0l.2,1.4.2-.5.2-1.9h.2l.2,1,.2-.5.2-1.9h.6l.2-1h.4l.2,1.4.4-.5.2-.5h0l.2-2.4h0l.2-3.4.6-.5.2-1h0l.2-1.4h0l.2,1.9.2-.5.2-7.2h.2l.2-1.9.2-.5.2-1h0l.2-1.9h0l.2-2.9h0l.2-1.9.4-.5.2-1.4.2-.5.2,1.4h0l.2,1.4h0l.2-1.4h0l.2-3.8h0l.2,1.4h0l.2,1.9h.2l.2-1.4h0l.2-2.4.2.5.2,1h.2l.2-1h0l.2-1h0l.2,2.4h0l.2,1,.4-.5.2,1.4h0l.2,1.9h0l.2-1,.2-.5.2,1.4h0l.2,2.9h.4l.2,1.4,1-.5.2-.5h0l.2,1h0l.2,1h0l.2-1h0l.2-4.3h0l.2-1.4.2.5.2,1,.2.5.2-1.4h.2l.2,2.4h0l.2,1.4h0l.2-1.9h0l.2-2.4.2-.5.2-1.9h0l.2,1h0l.2,2.4h0l.2,2.9h0l.2,1.4.2-.5.2-.5h0l.2-2.4h0l.2,2.4h.2l.2-1h0l.2,2.4h0l.2,1.4.2.5.2,1.4h0l.2,1.4h0l.2-1.4h0l.2-1.9h0l.2,1.4h0l.2,1.4.4-.5.2,1.9h0l.2,3.4h0l.2,3.4h0l.2-1,.2-.5.2,1.4h0l.2,1h0l.2,1h0l.2,2.9h0l.2,1h0l.2,3.4h0l.2,1.9h.2l.2,2.4h.2l.2,1h0l.2,2.4h.2l.2-1.4h0l.2,1,.2.5.2,1h0l.2,2.4h0l.2,2.9.6.5.2-1.9.6-.5.2-.5h0l.2,1h1l.2-1.9h0l.2-2.4.8-.5.2-.5.2.5.2-1.4h0l.2-1h0l.2,2.4h0l.2,2.4h0l.2,3.4h.2l.2-1h0l.2-1.9.6.5.2,1.9h0l.2,1h0l.2,2.9h0l.2,1.4.2-.5.2-1v.5h1l.2,1h0l.2-1h0l.2-1.9h.4l.2-1.4h0l.2-1.4.2.5.2,1h.2l.2,1,.2-.5.2-1.9.2-.5.2-1,.6-.5.2-1h0l.2,1.4h.4l.2-1h0l.2-1h0l.2,1,.3-.5.2-4.3h.6l.2-1,.6.5.2,1.4h0l.2-1,.4.5.2,1h.6l.2,1.9h.2l.2-1,.2.5.2.5.4-.5.2-1.9h0l.2-1h0l.2,1.4h0l.2,1h.4l.2,1.9.8-.5.2,1.4h.8l.2,1,.4-.5.2,1.4h.2l.2-1,.4.5.2.5.2-.5.2-2.9h.2l.2-1,.9-.5.2-.5,1,.5.2,1.4,1.2.5.2,1.4h0l.2-2.9.4-.5.2-.5.2-.5.2-.5h3.5l.2-1,.4.5.2.5h.6l.2-1,.2.5.2.5.4-.5.2-.5h0l.2,1,.2-.5.2-.5,2.9-.5.2-.5,3.7-.5.2-.5,9.4-.5.2-.5.2.5.2.5,5.1-.5.2-.5,1.6.5.2.5,2.2-.5.2-.5,2.1.5.2.5.8.5.2.5.4.5.2.5.2.5.2.5.8.5.2.5,6.3-.5.2-.5.2-.5.2-.5.4-.5.2-.5.4-.5.2-.5.4-.5.2-.5,3.5-.5.2-.5,6.3-.5.2-.5,2,.5.2.5,1-.5.2-.5,36.9-.5.2-.5,18.9-.5.2-.5,10-.5.2-.5,6.4-.5.2-.5,3.4-.5.2-.5,3.9-.5.2-.5,8.2-.5.2-.5,10.2-.5.2-.5,12.5-.5.2-.5,16-.5.2-.5h6.3"/>
  <rect x="262" y="243.2" width="2.9" height="15.4"/>
  <path class="st6" d="M272.3,313.8h0c0-.1,0,0,0,0v-2.9c.1,0,.2.2.2.2l.2-16v16.1c-.1,0,.1-10.1.1-10.1l.2,6.7.2-20,.2,4.4h0v.2s.1-3.8.1-3.8v-12c0,0,.2,12.2.2,12.2h0c0,0,0-.1,0-.1l.2,15.4.2-18.4-.2,18.6.2-17.6.2,13.8v-.3s.1,3.3.1,3.3h0c0-.1,0,0,0,0v-15c.1,0,0,15.2,0,15.2l.2-9.3.2,6v-.8s.2-17.5.2-17.5v17.7c-.1,0,.1-11.6.1-11.6l.2,8.3h0s0,3.9,0,3.9h0s0,1.2,0,1.2v-2c.1,0,.2-13.1.2-13.1v13.2c0,0,.1-1.8.1-1.8l.2,13.3h0c0-.1,0-1.4,0-1.4v1.8c0,0,.1,0,.1,0h0l.2-17.9v2.8s0,0,0,0v5.8c0,0,.3,6,.3,6v-.4s.3-19.1.3-19.1l-.2,19.2.3-9.9.2,15.3v-1.4c0,0,.2-20.6.2-20.6l.2,9.4v2c.1,0,0-2.1,0-2.1l.2.2.2-13.2v13.3c-.1,0,0-5.4,0-5.4l.2,21.3h0s.2,5.6.2,5.6v-1s.2-7,.2-7h0c0,0,0,.3,0,.3v-8.9c0,0,.1-9.3.1-9.3v9.4c.1,0,.3,5.1.3,5.1h0c0,0,0-.2,0-.2v4.7c.1,0,.1-.5.1-.5v.4s.2-3.3.2-3.3v.2s0-16.3,0-16.3v5.5c0,0,0-.3,0-.3l.3,13.9v-.2s.2,4.9.2,4.9h0s.1,2.6.1,2.6v-.8c0,0,0,.1,0,.1v-2.1c0,0,0,0,0,0v-22.8c.1,0,.3,3.3.3,3.3h0c0,0,.1,4.5.1,4.5h0c0-.1.2,4.1.2,4.1h0l.2-15.8-.2,16,.2-11.4v11.6c.1,0,.2-1.5.2-1.5v-.3s.2,2.1.2,2.1h0c0-.1,0,0,0,0v-4.3c.1,0,.1,0,.1,0v-14.1c0,0,.2,12.7.2,12.7v6.8c.1,0,.1-.2.1-.2v.7s.2-4,.2-4h0s0,.1,0,.1v-10.5c0,0,0-4.6,0-4.6v10.5c.1,0,.3,4.9.3,4.9v-.2s0-.8,0-.8v1.2s.1-.5.1-.5l.2,6.6v-.3h0v.3s0-8.3,0-8.3v-9.4s.2,7,.2,7l.2,3.5-.2-3.6.2,3.5v2.3c0,0,0-2.3,0-2.3l.2,1.6.2-13.1v13.3c-.1,0,0-8.4,0-8.4l.2,16.7.2-3.5v-21.1c.1,0,.2,6.7.2,6.7l.3,15.1.3-19.9-.2,20.7.3-13,.2,11.3v-.3s0,.2,0,.2l.2-6.6v.2s0-15.4,0-15.4v.9s0,0,0,0v9.7c0,0,0,0,0,0v6.5c.1,0,.2-1.1.2-1.1l.2-19.8-.2,20,.3-14.2.3,19.4v-5.2c.1,0,.2-18,.2-18v9.4c.1,0,.3,4.5.3,4.5v-1.8c0,0,.1-14.6.1-14.6v10.9c.1,0,.4,12.3.4,12.3l-.3-12.3.4,10v.2s.1-12.9.1-12.9v-3.9s.2,10.7.2,10.7h0s.2,4.9.2,4.9v-.6s0,.3,0,.3v-3.5c.1,0,.1,0,.1,0v-14.4c.1,0,.2,9.5.2,9.5l.2,11.1v-.3s0,0,0,0v-1.8c.1,0,.1.1.1.1v-15.6c.1,0,0,15.6,0,15.6l.2-6.2.2,13.6h0c0,0,.1,5.3.1,5.3v-.2s0,.5,0,.5v-4.7c.1,0,.1,0,.1,0h0s.2-14.9.2-14.9v-3.8s.2,9.6.2,9.6v-.2s0,2.9,0,2.9v-1.8c.1,0,.3-16.5.3-16.5v1.1s.2,17.6.2,17.6l.2-2.6v-17.6c.1,0,.2,6.3.2,6.3l.2,4.6v-.4s.2,4.4.2,4.4h0c0-.1.2,2.2.2,2.2l-.2-2.4.2,2.3v-14.2c.1,0,.2,8.9.2,8.9h0s0,3.1,0,3.1h0s.2,9.6.2,9.6v.2s.2-7.8.2-7.8v-3.9s0-11,0-11v4c.1,0,.3-.3.3-.3v2.3c0,0,.1,2.4.1,2.4v-12.9c.1,0,.5,20,.5,20l-.3-20.2.4,20v.2s.2-8,.2-8v-6.2s.2,12.4.2,12.4h0v6.9c.1,0,.2-.2.2-.2v.6s.1-3.1.1-3.1h0c0,0,.1-18.2.1-18.2v7.3c.1,0,.3,1.7.3,1.7v-.4s0,.4,0,.4v-5.3c0,0,.1-9.5.1-9.5v13.1c.1,0,.1,0,.1,0l.2,5.6v-1.6c0,0,.2-15.5.2-15.5v15.6c0,0,.1-5.2.1-5.2l.2,12.7v-.2s0,.6,0,.6l.2-4.9h0c0,.1,0-14.3,0-14.3v2.3s0,0,0,0v4.9h0l.2,8.5h0c0,0,0,0,0,0v-3.6c.1,0,.1.1.1.1v-14.3c0,0,.2,9.3.2,9.3l.2,4.2v-.2s.1-17.4.1-17.4v7.5c0,0,0-.2,0-.2v3.3c.1,0,.1-.2.1-.2l.2,6.9v-.2s0,0,0,0v-3.3c0,0,0,0,0,0v-13c0,0,.2,11.6.2,11.6l.3,10.6v-1.8c.1,0,.2-18.9.2-18.9v7.7c.1,0,.2.9.2.9v-1.3c.1,0,.1,0,.1,0v-12.7c.1,0,0,13,0,13l.2-5.5.2,6.8-.2-7,.2,6.7v-14.9c.1,0,0,15,0,15l.2-7.8h0s.1,3,.1,3v-2.1c0,0,.1-12.6.1-12.6v11.4c.1,0,.2,2.1.2,2.1v-2.1c0,0,.1.5.1.5v-13.2c0,0,0,13.2,0,13.2l.2-2.7.3,17.3.2-18.9-.2,19.1.3-9.7v5.1c.1,0,.2-3.1.2-3.1v-15.1c0,0,.2,8.5.2,8.5l.2,4.1h0c0-.1.1-14.9.1-14.9v14.7c-.1,0,0-7.1,0-7.1l.2,14.3v-.3c0,0,.2-3.1.2-3.1v-11.5s.2,10.3.2,10.3h0c0,0,.1,4.6.1,4.6h0s.1,5.8.1,5.8v-2.3c0,0,.2-17.6.2-17.6v9.8c0,0,.3,9.9.3,9.9l.2-17.9-.2,18,.3-12.5.2,9.4h0c0,0,.2-18,.2-18v6.1s.2,8.6.2,8.6v-3.5c0,0,.2-13.9.2-13.9v11.3c.1,0,.1,0,.1,0v5.4s.3,10.1.3,10.1v-.2s.2,2.5.2,2.5v-.5s.2-17.8.2-17.8v18.1c-.1,0,.1-11.6.1-11.6l.2,6.1v-.3s.2-16.1.2-16.1v4.1s.3,18.4.3,18.4h0c0-.1,0-.3,0-.3v1.6c0,0,.1-.3.1-.3v.2s.2-3.4.2-3.4v.2s.1-17,.1-17v17c-.1,0,.1-9.5.1-9.5v3.7c.1,0,.2-2.9.2-2.9v-16.7c.1,0,0,16.8,0,16.8l.2-6.7v1.3s.1-4.8.1-4.8v-12.7c0,0,.2,12.2.2,12.2l.2,10.1v-.2s.1,3.2.1,3.2v-.5s0,.1,0,.1v-3c.1,0,.2-13.1.2-13.1v9.8c.1,0,.3,3.9.3,3.9v-.3s0,.5,0,.5v-4c0,0,.1-12.3.1-12.3v7.3c.1,0,.2,1.7.2,1.7v-1.8c0,0,0,0,0,0v-13.8c0,0,0,14,0,14l.2-5.2v3.6c.1,0,.2-1.4.2-1.4v-10.5c0,0,.2,11.4.2,11.4v-.3s.2,10.4.2,10.4v-.2s.2-16.9.2-16.9v17.2c-.1,0,0-10.9,0-10.9l.2,10.7h0c0-.1.2-16.1.2-16.1v17.6c-.1,0,.1-9.2.1-9.2l.2,8.9h0c0-.1.2-15.6.2-15.6v.3s.2,15.5.2,15.5h0s.1,3.6.1,3.6v-.4c0,0,.2-17.2.2-17.2l-.2,17.3.3-8.7.2,8.5v-.3s0,0,0,0v2.5c0,0,.2-.6.2-.6v.2s.1-12.5.1-12.5v-5.6s.2,9,.2,9h0c0-.1,0,1.5,0,1.5v-1.9c0,0,.1.2.1.2h0s0-2.2,0-2.2h0s0-13.6,0-13.6v11.6c.1,0,.4,11.2.4,11.2l-.3-11.2.3,11.2.2-16.2v16.7c-.1,0,0-12.3,0-12.3l.3,13h0c0-.1,0,2,0,2h0s0,.4,0,.4v-3.8c.1,0,.2-14,.2-14v8.6c.1,0,.4,4.2.4,4.2v-.2s.2-16.5.2-16.5l-.2,16.7.2-12.1h0s0,3.2,0,3.2l.2,10.3v-1.5c0,0,.2-17.7.2-17.7v17.8c-.1,0,0-8.3,0-8.3l.3,15.1h0c0-.1.2,3,.2,3h0c0-.1.2-19.5.2-19.5l-.2,19.4.3-10.9.2,17.4h0c0,0,0,0,0,0v1.5c0,0,.2-2.5.2-2.5h0c0,0,.3-23.8.3-23.8v5.8c0,0,.3,10.5.3,10.5l-.2-10.5.2,10.2h0s0,3.1,0,3.1v-2.9h0v-18.6c0,0,.2,9.3.2,9.3l.2,5.3v-.2s.2-14.4.2-14.4l-.2,14.5.2-10.8.2,10.9h0s0,3.2,0,3.2h0c0,0,0,.2,0,.2v-2.8c.1,0,.1.1.1.1v-16.2c0,0,.2,9.8.2,9.8l.2,7.9v-1.2s.2-19.2.2-19.2v7.3c0,0,.3,9.6.3,9.6l.2-20.4-.2,20.9.3-12.2.2,15,.2-18.3v2.7s.3,16.6.3,16.6v-.2s0,0,0,0l.2-3.3v.4s0,.5,0,.5v-2.5c0,0,.1-12.3.1-12.3v11.3c.1,0,.3,8.9.3,8.9v-.2s0,.3,0,.3v-13.2c0,0,.1-8.4.1-8.4v9.5h.1v2.4c.1,0,.2-1.5.2-1.5v-15.1c0,0,.2,9.2.2,9.2v5.9c0,0,.2-2.2.2-2.2h0s0-5.9,0-5.9v-10.2s.2,10.8.2,10.8l.2,12.7v3.6c.1,0,0-3.7,0-3.7l.2.9v-16c.1,0,0,16.1,0,16.1l.2-8.4.2,5.6v-.8s.2-17.1.2-17.1v8c0,0,0,0,0,0v6c0,0,0,0,0,0l.2,9.2v-.3h0c0,0,.1-4,.1-4h0s0,0,0,0v-3s0-12.8,0-12.8v9.6h.1l.2,8.6h0c0,0,.2-17,.2-17l-.2,18.2.2-17.3.2,14.2v-.2s.1,1.4.1,1.4v-1.7c0,0,0,.3,0,.3l.2-16.9v5.5c0,0,.3,10.2.3,10.2l.2-18.2-.2,18.6.2-15.4.2,21.9v-.2s.1,4,.1,4l.2,4.1-.2-4.2.2,3,.3-22.9v2s0-.2,0-.2v7c.1,0,.1,0,.1,0l.2,9.7.3-18.3-.2,18.8.3-9.2.2,10v-.8s.3-19.8.3-19.8v2s.2,13.3.2,13.3h0s0-.2,0-.2v2.5c.1,0,.2-.5.2-.5l.2-14.8-.2,15,.3-6.5.2,5.8-.2-5.9.2,5.8.3-19.6-.2,20.8.3-16.1.2,9.1-.2-9.1.3,7.7v-16.6c.1,0,.2,5,.2,5l.2,14.4h0l.2-.6v2.2c0,0,0-2.2,0-2.2h0c0,.1,0-12.1,0-12.1v-4.9s.2,10.7.2,10.7h0s0,2.9,0,2.9h0s.2,9,.2,9h0c0-.1,0-.1,0-.1v.9c0,0,0-1,0-1l.2.5.2-1.6v2c-.1,0,0-1.9,0-1.9h0s0-7.7,0-7.7v-8.7s.2,11.1.2,11.1h0c0,0,.2,7.5.2,7.5v.9c0,0,.2-1.2.2-1.2l.2-20v6.7c0,0,0,0,0,0v3s0-.2,0-.2l.2,8.9-.2-9,.2,8.7h0c0-.1.1.7.1.7h0s0,1.3,0,1.3v-2.5c0,0,0,.1,0,.1v-7.1c0,0,.1-9.3.1-9.3v11.9c.1,0,.3,9.8.3,9.8l.3-19.4-.3,19.8.4-11.1.2,12.5v-.3s.1-1.5.1-1.5v1.9c-.1,0,0-1.8,0-1.8v.5c0,0,.2-1.7.2-1.7v.2s.1-17.6.1-17.6v6c0,0,.3,8.9.3,8.9h0c0,0,.2,3.6.2,3.6v-.2s.2-18.9.2-18.9v1.1s0-.1,0-.1v12.5c.1,0,.1,0,.1,0h0s0,3.1,0,3.1h0c0-.1.2,8.7.2,8.7v-.2s.1-1.9.1-1.9v1.9c-.1,0,0-1.3,0-1.3v.2s.1-3.6.1-3.6h0s.1-19.6.1-19.6v6.8c.1,0,.1,0,.1,0v2.7s0-.1,0-.1v3.3c.1,0,.2-.6.2-.6l.2-14.9v2.1s.3,17.7.3,17.7h0c0,0,0-.2,0-.2v1.8c.1,0,.2-.2.2-.2l.2,5-.2-5.1.3,3v-18.9c.1,0,0,18.9,0,18.9l.2-14.9.2,14.6.2,4.9-.2-5.1.3,2.6.2-21.5v5.1c0,0,.4,19.8.4,19.8v-.2s.2-2.5.2-2.5v3c-.1,0,0-3,0-3h0s.2-20.6.2-20.6v1.7s.3,13.2.3,13.2v-.2s.3,5.9.3,5.9v-1.4c0,0,.3-5.6.3-5.6v-8.5s0-6.1,0-6.1v9.9c.1,0,.1,0,.1,0l.2,14.2v-.3s.1,1.1.1,1.1v-.5c0,0,0,.4,0,.4v-2.1c.1,0,.1.1.1.1l.2-21.1v9.7c.1,0,.5,17.4.5,17.4l-.3-17.4.3,17.4h0c0,0,.1,4.8.1,4.8h0s0,0,0,0v-1.4c.1,0,.1.2.1.2v-1c0,0,0,1.1,0,1.1l.2-.9h0c0,0,.1-6.8.1-6.8v.2s.1-22.3.1-22.3v5.5c0,0,.3,11,.3,11h0c0,0,.2-1,.2-1v1.6c0,0,0-1.6,0-1.6v.2s.1-4.7.1-4.7h0c0,0,0-9.7,0-9.7v10c0,0,.1,0,.1,0v9.7c.1,0,.3-1,.3-1h0c0-.1.1,2.5.1,2.5h0c0-.1,0,.5,0,.5v-3.3c.1,0,.1,0,.1,0h0l.2-22.1-.2,22.2.3-17h0l.3,17.7h0s0-.3,0-.3l.2,1.8h0v5.4c.1,0,.2-1.6.2-1.6l.3-25.5v2.8c0,0,.5,21,.5,21v-.2s.1,1.5.1,1.5v-.5c0,0,0,.3,0,.3l.2-3.5h0s0,.4,0,.4v-3.3c.1,0,.1.3.1.3v-15.5c.1,0,0,16.1,0,16.1l.2-10.8h0s.2,11,.2,11v-.2s.2,3.6.2,3.6v-.2h0v2.4c.1,0,.2-.7.2-.7h0c0,.1.1-2,.1-2l.2-1.8-.2,1.9.2-1.7v.5s.2-8.3.2-8.3v-12.6s.2,15.1.2,15.1h0c0,0,.2,9.5.2,9.5h0s0-.2,0-.2v3.7c.1,0,.2-.4.2-.4v.2s.2-3.9.2-3.9v.2s.3-21.3.3-21.3l-.3,21.4.3-18.8h0c0-.1,0,4.8,0,4.8l.2,9.3v-.4s.2,3.4.2,3.4v-.2s.2,4.2.2,4.2h0s0,.3,0,.3v-1.9c0,0,.2-1.4.2-1.4v1.6c0,0,0,0,0,0l.3-24.8-.3,24.9.4-16.9.3,16.2h0c0,0,0-.1,0-.1l.2,1.7h0c0,0,0,.8,0,.8v-2.7c.1,0,.1,0,.1,0l.2-15v-9.1s.2,11.4.2,11.4l.2,7.8-.2-7.9.3,7.1v-1.7c0,0,.2,3.3.2,3.3h0s.1,3.9.1,3.9v-.8c0,0,.2-5.5.2-5.5v.6s.1,1.8.1,1.8v-3.1c0,0,.2-19.7.2-19.7v19.7c-.1,0,.1-9.2.1-9.2h0s0,2.8,0,2.8h0s.2,12.1.2,12.1l.2-.7v1.1c-.1,0,0-1.1,0-1.1l.2,3.4v-5c-.1,0,0,4.9,0,4.9l.2-6.4-.2,6.6.2-6.4h0s0-6.8,0-6.8v-11.4s.2,12.5.2,12.5h0c0,0,0,9.3,0,9.3h0c0-.1.2,8.9.2,8.9v-.5s.2-3.6.2-3.6l-.2,3.8.2-3.7v.3s.2-2.9.2-2.9h0c0,0,0,.1,0,.1v-3.7c0,0,.2-22.1.2-22.1v22.2c-.1,0,.2-11.5.2-11.5l.2,10.9h0c0,0,.4,7.6.4,7.6v-2.1c0,0,.4-24,.4-24v.2s.3,15.6.3,15.6v-.2s.1,5.4.1,5.4h0s0,.5,0,.5v-1.7c0,0,.1.2.1.2l.2-1.3-.2,1.3.2-1.2h0s.1-1.2.1-1.2v.2c0,0,.2-21.5.2-21.5v3.7s0-.2,0-.2v10.7c.1,0,.4,6.3.4,6.3l.2-1.1v-.5s.2,4,.2,4v-.2s.1,1.9.1,1.9v-3.6c0,0,0,.3,0,.3v-6c.1,0,.1,0,.1,0v-12.7c0,0,.2,12.3.2,12.3l.2,8.4v-.3s0-.3,0-.3v3.1c.1,0,.2-.7.2-.7v.8c0,0,.3-6.1.3-6.1v.3s.1-12.1.1-12.1v-6.8s.2,15,.2,15v-.2s.2,11.1.2,11.1v-1c0,0,.2,3.3.2,3.3v-.2s0,1.8,0,1.8v-1.3c0,0,.4-26.1.4-26.1l-.3,26.2.3-24.4.2,23.7v1.1c.1,0,0-1.4,0-1.4l.2,1.3v-.3s.2,2.5.2,2.5v-.2s0,3,0,3v-1.8c0,0,0,0,0,0l.5-14.2v-16.4c0,0,.2,12.4.2,12.4h0l.4,20.1v-.2s0,0,0,0v3.2c0,0,.3,2.2.3,2.2l-.2-2.3.2,2.1v-.4s.1,1.5.1,1.5v-1.1c0,0,.5-5.9.5-5.9l-.4,6,.4-5.9v.3s.2-3.5.2-3.5h0c0,.1,0-2.1,0-2.1v-16.2c.1,0,.2,9.3.2,9.3l.3,13.6-.3-13.7.4,9.2h0c0,0,.2-5.7.2-5.7v.2s.1-4.4.1-4.4h0c0,.1,0,.2,0,.2v-12.2c.1,0,.1-6.1.1-6.1v18.6c.1,0,.1-.2.1-.2l.2,9.7h0c0,0,0-.1,0-.1v1.6c.1,0,.2-.3.2-.3l.2,1.6v-1.9c-.1,0,0,1.8,0,1.8v.5s.2-3.5.2-3.5v.2s.2-5.9.2-5.9h0s.2-21.9.2-21.9l-.2,22.1.3-18.5.2,23.3h0s.1.8.1.8v-1c-.1,0,0,.8,0,.8v-3.2c.1,0,0,3.2,0,3.2l.2-2.2v1.2c0,0,.2-1.8.2-1.8h0c0,.1,0-1.6,0-1.6v1.8c0,0,0-.5,0-.5v.6s.2-2,.2-2h0s0-2.4,0-2.4l.2-19.7v6c0,0,.3,20.5.3,20.5l.2-.7v1.3c0,0,0-1.2,0-1.2v-1.4c0,0,0,1.5,0,1.5l.2-.6v.2s.2-2.3.2-2.3h0c0,0,.2,1.3.2,1.3v-2c-.1,0,0,1.9,0,1.9h0c0-.1.2.7.2.7v-.2s0,.2,0,.2v-2.9h0l.2-6.4h0c0,.1,0,.3,0,.3v-15.4c.1,0,.1-1.2.1-1.2v13.2c.1,0,.3,10.8.3,10.8h0c0-.1,0-.3,0-.3l.2,2h0v-.2s.2,1.9.2,1.9h0v.7c0,0,.1-.9.1-.9v.2h0c0,.1.1-5.7.1-5.7h0c0,0,.2-2.6.2-2.6l-.2,2.7.2-2.6h0s.1-3.5.1-3.5v.2s.1-16.9.1-16.9v11c0,0,0,0,0,0v6.7c0,0,.4,17.6.4,17.6h0s0,2.7,0,2.7l.2,3.5-.2-3.6.2,3.5h0v.5s.1-2.6.1-2.6h0c0,.1.2-4.9.2-4.9h0s0,.9,0,.9v-1.4c0,0,0,.3,0,.3v-1c0,0,.2,1.9.2,1.9v-.3s0,.9,0,.9v-2.2c.1,0,.1.9.1.9h0s.1,3.1.1,3.1v-.2s0,.3,0,.3v-1.8c.1,0,.1.2.1.2v.3s.2-3.8.2-3.8h0c0,.1,0,0,0,0l.2-3.7-.2,3.8.2-3v1.1c.1,0,0-1.3,0-1.3l.2.6v-1.8c.1,0,.2,1.1.2,1.1v.2s.1-2.3.1-2.3v.2s.4-12.3.4-12.3l-.4,12.5.4-12.3v-14c0,0,.2,11.9.2,11.9l.4,14.1v-.3s0-.2,0-.2v1.6c.1,0,.2-.4.2-.4v.3s.1-1.3.1-1.3v.6s.2-3.7.2-3.7l-.2,3.8.2-3.8h0c0,.1.1-3.9.1-3.9v.3s0,.2,0,.2l.2-4.4h0c0,.1,0-5.4,0-5.4v-10.9s.2,15.5.2,15.5h0c0-.1.1,10,.1,10h0s.1,2.4.1,2.4h0s0-.3,0-.3l.2,4.1h0c0-.1,0,1,0,1v-1.5c0,0,0,0,0,0l.2-2.7v.7c0,0,0-1,0-1l.2.9.2-1.2-.2,1.5.2-1.4v2.3c0,0,0-2.3,0-2.3l.2,1.6v-.5s.2,2.2.2,2.2h0s0-.4,0-.4v2c.1,0,.2-.9.2-.9v.5s.2-3.3.2-3.3h0c0,.1,0-1.8,0-1.8v2.2c0,0,0,0,0,0h0v2.9c0,0,0-3,0-3l.2,2.7.2-2.9v.2s.1.7.1.7v-1.1c0,0,0,.1,0,.1v-2.5c.1,0,.2.3.2.3l.2-7.2v.2s0,0,0,0v-4.5c0,0,0,0,0,0v-12.8s.2,13.3.2,13.3l.2,13.1v-.2s0,0,0,0v.3c.1,0,.2-1,.2-1v.2s0-1.4,0-1.4v3.5c0,0,.2,2.2.2,2.2v-2.4c-.1,0,0,1,0,1l.2-5.6h0c0,.1,0-.1,0-.1v1.3c.1,0,.1,0,.1,0v.6c.1,0,0-1.2,0-1.2v.4c.1,0,.4-8.6.4-8.6l-.3,8.7.3-8.7h0v-16.7c0,0,.2,9.2.2,9.2l.2,18v.9c0,0,.1-1.9.1-1.9h0c0,0,0-2.5,0-2.5v2.6c0,0,0-.2,0-.2v1.8c.1,0,0-1.8,0-1.8l.2.6.3-5.7-.3,5.8.3-5.7v.4c.1,0,.2-.8.2-.8h0c0,.1,0,.3,0,.3v-1.7c0,0,.3-2.8.3-2.8v.4s.2-18.1.2-18.1v18.1c-.1,0,0-10.8,0-10.8l.3,20.9v-.2s0-.1,0-.1l.2,2.4v-.2s0,.2,0,.2l.2-1v.2s0-.5,0-.5v1.6c.1,0,.2-.8.2-.8v.2s.1-4.3.1-4.3h0s.2-4.5.2-4.5l-.2,4.5.2-4.3h0v-19.6c.1,0,.2,9.2.2,9.2h0c0,0,0,7.3,0,7.3l.2,8.5-.2-8.6.3,7.3v-.4s.1,4.7.1,4.7h0c0-.1,0,1.2,0,1.2v-2c0,0,0,0,0,0l.2-3.2v.8s.2.9.2.9l-.2-1,.2.9.2-4h0s0,0,0,0v.2s.1-1.2.1-1.2v1c0,0,.3-23.5.3-23.5l-.2,23.7.3-23,.3,24.2h0s0,0,0,0l.2,4.5-.2-4.6.2,4.6v-.2s.1,1.3.1,1.3v-1.1c0,0,.3-4.7.3-4.7l-.2,4.8.3-4.5v.6s.2-1.6.2-1.6v.2s.2-7.4.2-7.4v-12.6c0,0,.2,10.8.2,10.8l.5,18.1-.5-18.2.6,17.6.2-1.2-.2,1.4.2-1.3v.2s.2-3.2.2-3.2h0c0,.1,0,.2,0,.2l.6-15.8v-9.7s.2,14.1.2,14.1h0c0-.1.2,12.2.2,12.2l.2,5.8-.2-5.8.2,5,.2-5.3-.2,5.3.2-5.3v-.3s.1,4.9.1,4.9h0v1.4c0,0,.2-1.2.2-1.2l.2-7.8-.2,7.9.2-7.8h0c0,0,.4-11.9.4-11.9v-9.9s.2,12.8.2,12.8h0s.2,13,.2,13h0s0,2.8,0,2.8h0s.1,4.7.1,4.7v-.4s0,0,0,0v-1.7c0,0,0,0,0,0v-.7s.1,1.4.1,1.4v-.6h0l.2-3.6-.2,3.7.2-3.7.2,4.8-.2-5.1.2,4.8.2-3.3-.2,3.8.2-3.7.2,1.1v-1.6c-.1,0,0,1.5,0,1.5v.3s.1-1.4.1-1.4h0s.2-4.2.2-4.2l-.2,4.3.2-4.2h0c0,.1,0-1.1,0-1.1v.7c0,0,.2.3.2.3v-1.4c0,0,.5-22.5.5-22.5l-.4,22.5.4-17.5.2,20.8h0s0,2.3,0,2.3l.2,7.7-.2-7.9.2,7.7h0v2.1c0,0,.2-2.7.2-2.7v.2s.2-5.3.2-5.3v.2s0,.5,0,.5v-2.4c0,0,0,.2,0,.2l.2-4h0c0,.1,0-.1,0-.1v1.3c.1,0,.1-.1.1-.1v.2s.2-2.9.2-2.9h0s0-.5,0-.5v3.4c.1,0,.1-.3.1-.3v.2s.1-3.4.1-3.4v.2s.3-21.2.3-21.2v2.7s.3,18.5.3,18.5h0c0-.1.2,5,.2,5v-.3s.3-1.8.3-1.8v2.4c-.1,0,0-2.2,0-2.2h0c0,0,.1-2.6.1-2.6v.3s.2-3.8.2-3.8l.3,4.2-.3-4.2.3,4,.2-1.5-.2,1.9.2-1.8h0s0,.7,0,.7v-.8s.1.4.1.4h0c0,.1.1-1.6.1-1.6v.3s0-1.5,0-1.5v1.5c0,0,.1-.8.1-.8l.2-3.3-.2,3.5.2-3.3.2,1.5v-2.3c-.1,0,0,2.1,0,2.1h0s.2-1,.2-1h0c0,0,.1-3,.1-3h0s.2-17.8.2-17.8l-.2,18,.3-12.6.3,23.5v-.2s0,0,0,0v4.6c.1,0,.1,0,.1,0v2.8c.1,0,.2-2.2.2-2.2l.2-5.5v.4s.2-2.3.2-2.3h0s.2-6.4.2-6.4l.2,4.8v-.2s.2-7.6.2-7.6h0c0,.1,0-14.2,0-14.2v-3.8s.1,16,.1,16l.3,21.8v-.2s0,1.9,0,1.9v-.4c0,0,0,0,0,0v-1.3c0,0,.1.1.1.1v-.2s0,2.2,0,2.2v-.6c0,0,.1.3.1.3v-3.4c.1,0,.1.2.1.2l.2-2.8h0c0,.1,0,.1,0,.1h0s.1-2,.1-2v.2s0-.7,0-.7v1.5c0,0,0,0,0,0l.2,1.3-.2-1.3.2,1.1.2-.8v1.9c0,0,0-1.8,0-1.8v.2s.2-8.6.2-8.6l.2-21.7v2s.3,25.4.3,25.4v-.4s0,2.6,0,2.6l.2,4.7h0c0,0,.2-1.9.2-1.9v2.4c-.1,0,0-1.6,0-1.6v1.9c.1,0,.2-.5.2-.5l.6-14.9v2.8c.1,0,.3,2.1.3,2.1l-.2-2.2.2,1.9h0s0-.3,0-.3v3c0,0,.1.2.1.2v-.9s.1.3.1.3v-.6c.1,0,0,.8,0,.8v-.3c.1,0,.3,7,.3,7v-1c0,0,.2-2.6.2-2.6v.2s0,0,0,0v-2.3c.1,0,.1.2.1.2l.2-5.7-.2,5.8.2-5.4v.9c0,0,.2-1.8.2-1.8h0l.2-4-.2,4.2.2-4.1v.3c0,0,.2-2.4.2-2.4v.2s.1-15.3.1-15.3v9.8c0,0,.3,19,.3,19h0s.2,2.4.2,2.4h0s0,0,0,0v3c.1,0,.1,0,.1,0h0s0,.5,0,.5l.2-3.3v.3s.2-1.8.2-1.8h0s.2-2.5.2-2.5h0c0,0,0-.7,0-.7v3c.1,0,.1-.2.1-.2v1.8c0,0,.2-.3.2-.3l.2,2.2v-3.3c-.1,0,0,2.7,0,2.7h0c0,.1.2-4.3.2-4.3l.2.2v-1.5c0,0,0,1.2,0,1.2l.2-.8v2.3c-.1,0,0-2.1,0-2.1l.2.9v-1.9c0,0,0,1.9,0,1.9v1.3c0,0,.2-1.8.2-1.8v.2s.1-4.4.1-4.4v1.2s.2-1.1.2-1.1v3.1c0,0,0-3,0-3h0s.2-7.6.2-7.6h0c0,.1,0-14.5,0-14.5v.8s0,0,0,0v7.1c0,0,.3,18.5.3,18.5h0s0,3.2,0,3.2v1.1c0,0,0-1.2,0-1.2l.2.5v1.3c0,0,0-1.6,0-1.6l.2.7.2-3.5-.2,3.6.2-3.5.2,2-.2-2.6.2,2.5v1.1c0,0,.2-2.2.2-2.2l.2.5v-1.7c-.1,0,0,1.6,0,1.6l.2-3.2v4c0,0,0-3.8,0-3.8v.2s0-2.5,0-2.5v1.6c.1,0,.1.1.1.1v-1.1c.1,0,.2,0,.2,0l.2-3.6-.2,3.8.2-3.4v2.2c.1,0,0-2.4,0-2.4l.2,2.1.3-10.5-.3,10.8.3-10.8v-15.4c0,0,.2,12,.2,12l.2,15.4h0s0-.3,0-.3v1.7c0,0,.2-1,.2-1l.2,2.3-.2-2.8.2,2.5.2-4.4v4.5c-.1,0,0-4.3,0-4.3h0v.8c.1,0,0-1.1,0-1.1l.2.6v-2.2c.1,0,0,2.3,0,2.3l.2-.5h0s0,4.2,0,4.2v1.8c0,0,0-2,0-2l.2.6v-2.8c.1,0,.2,1.3.2,1.3h0c0,0,0,3.5,0,3.5h0c0,0,0,.7,0,.7v-2.1c.1,0,.1.1.1.1l.2-2.8v.3s.1-1.5.1-1.5h0c0,0,.2,3.6.2,3.6l-.2-3.9.2,3.6v-.5s.2.8.2.8h0c0-.1,0-.1,0-.1l.2,1.5v-2.4c-.1,0,0,2.3,0,2.3v.3s.1-1.8.1-1.8h0c0,.1,0-.2,0-.2v2.9c.1,0,.1-.3.1-.3v.2s.2-3,.2-3h0c0,0,.2-6.3.2-6.3l-.2,6.5.2-6.4v.3s.2-2.5.2-2.5v.2s.2-21.3.2-21.3v8.6c0,0,0,0,0,0v3.2s.3,16.3.3,16.3h0s0-.4,0-.4v.8c0,0,.1-.2.1-.2l.2-1.5v1.7c-.1,0,0-1.7,0-1.7h0c0,.1.2-2.8.2-2.8v.2s.2-3.3.2-3.3l-.2,3.3.2-3.3v.2s.1-4.4.1-4.4v.2s.2-5.5.2-5.5h0c0,.1,0-14,0-14v3.4s0,4.6,0,4.6l.3,25.6v-.3s.1,4,.1,4v-.4s0,.4,0,.4v-3c.1,0,.1,0,.1,0v-5c.1,0,.2.6.2.6v.9c0,0,.2-1.3.2-1.3h0c0,.1.1-2.4.1-2.4v2.6c-.1,0,0-2.1,0-2.1v.2s0-1.5,0-1.5v1.5c0,0,.1-.4.1-.4v3c.1,0,.1-.2.1-.2v.4s.1-2.5.1-2.5v.3s.2-3.9.2-3.9v1s.3,2.2.3,2.2l-.3-2.3.3,2.2v-2.1c.1,0,0,2.2,0,2.2l.2-1.6h0v-.7c.1,0,.2,2,.2,2h0c0,.1.1-2.3.1-2.3h0c0,.1.1-3.2.1-3.2v.6c0,0,.1,1,.1,1v-1c0,0,.1,1,.1,1v-.6c0,0,.2,1.8.2,1.8v-.3s0,1.1,0,1.1v-2.4c0,0,0,.3,0,.3h0c0,0,.1-2.1.1-2.1h0c0,0,.2-1,.2-1v1.7c0,0,0-1.5,0-1.5v.2s.2-1.3.2-1.3v.2s0-.1,0-.1v2.1c0,0,.1,1.1.1,1.1v-2.1c.1,0,.1-.4.1-.4v1.7c.1,0,.1-.2.1-.2v1.1c0,0,0-1.2,0-1.2l.2.4.2-1.4v.4s.2,2.8.2,2.8l-.2-3,.2,3h0s.2-4,.2-4h0c0,0,.1-13.9.1-13.9v-4.6s.2,16.2.2,16.2h0s.2,18,.2,18v-.4s.2,2.1.2,2.1h0s0-.2,0-.2v4c.1,0,.2-.6.2-.6h0c0,.1.1-3,.1-3h0s.2-1.6.2-1.6v1.9c-.1,0,0-1.7,0-1.7v1.2c0,0,.2-1.8.2-1.8v-2.2c.1,0,.2.9.2.9v1c0,0,.2-1.5.2-1.5h0c0,.1.2-4.4.2-4.4l-.2,4.6.2-2.9v2.8c0,0,0-2.8,0-2.8l.2,2.3v-3.1c0,0,.2,1.3.2,1.3v3.2c.1,0,.2-1,.2-1l.2-6.6v.6c0,0,0,.8,0,.8v-1.3c.1,0,.1.2.1.2h0c0-.1.2,2.7.2,2.7h0c0-.1.2,3.2.2,3.2v-.5h0l.2-2.1v2.2c-.1,0,0-1.6,0-1.6l.2,2.4h0c0,0,.2-2.3.2-2.3v2.7c-.1,0,0-2.4,0-2.4l.3-6.6h0c0,0,.2,1.2.2,1.2v-2.7c-.1,0,0,2.4,0,2.4l.2-3.8-.2,3.8.2-3.7h0c0,.1.1-3.9.1-3.9h0c0,0,.1-15.6.1-15.6v15.8c-.1,0,0-5.5,0-5.5h0s.2,19.7.2,19.7h0c0-.1.1,5.8.1,5.8v-.3s.2,2.4.2,2.4v-.2s0,.1,0,.1v-1.4c0,0,.2,1,.2,1v-.5s.2,2.1.2,2.1h0c0,0,0,0,0,0l.2-3.5h0s0,1.2,0,1.2v-1.9s0,.2,0,.2l.2-3.6h0c0,0,0,.2,0,.2v-3.1c.1,0,.2,1.1.2,1.1h0c0-.1.2,1.9.2,1.9v-.2s0,.8,0,.8v-.9c0,0,0,.6,0,.6v-2.1c.1,0,0,2.2,0,2.2l.2-2v-.3c0,0,.2.8.2.8v-.9c.1,0,0,1.4,0,1.4v-.8c.1,0,.1,0,.1,0v-2c0,0,0,.1,0,.1v-4.4c.1,0,.2,1.5.2,1.5v-.2s0,2.7,0,2.7v-.8h0l.2-11.1h0c0,0,0-4.7,0-4.7v-9.9s.2,15.5.2,15.5h0s0,2.9,0,2.9h0s.5,16.7.5,16.7l-.5-16.8.5,16v-1.3c0,0,0,1.4,0,1.4l.2-.3.4-4.4-.3,4.9.3-4.6v.2s.2-2.3.2-2.3v.2s.1-4.1.1-4.1v2c0,0,.2,1.4.2,1.4v-1.4c-.1,0,0,.8,0,.8v-2.5c.1,0,.2.6.2.6l.2,2.8v-.2s0,1,0,1v-1.1c0,0,.1.9.1.9h0c0-.1,0,1.6,0,1.6v-.2c0,0,.1,1.6.1,1.6v-1.3c0,0,.2-1.4.2-1.4v1.7c0,0,0-.2,0-.2v1.1c0,0,0-1.4,0-1.4l.2,1.1v-2.1c.1,0,0,2.2,0,2.2l.2-.7v.2s.1-3.3.1-3.3v.2s.1-2.1.1-2.1v.2s0,.4,0,.4v-2.5c.1,0,.1.2.1.2l.2-4.5v4.6c-.1,0,.1-2.7.1-2.7v.3s.2-2.9.2-2.9v.3s.1-4.4.1-4.4v.4s.1-15.3.1-15.3v10.7c0,0,.4,16.4.4,16.4h0v-.2s.2,2.4.2,2.4h0c0-.1.2,4.5.2,4.5v-4.8c-.1,0,0,4.3,0,4.3v.4c0,0,.2-1.2.2-1.2v.2s.2-3.1.2-3.1v.2s.1-4.8.1-4.8h0c0,0,.2,1.1.2,1.1l-.2-1,.2.8v.7c.1,0,0-1,0-1l.2.3v-1.3c.1,0,0,1.7,0,1.7l.2-.3.2,4.3-.2-4.3.2,4.2v-3.2c.1,0,0,3.2,0,3.2l.2-1.7h0c0,.1.1-2.7.1-2.7h0s.1-1.5.1-1.5v1.6c-.1,0,0-.5,0-.5l.2,6-.2-6,.2,5.4v-2.2c.1,0,0,2.2,0,2.2l.2-1.9v-.8c.1,0,0,1,0,1l.2-.6v.6s.2-2.6.2-2.6v.3s.2-3.4.2-3.4v.2s0,0,0,0v-3.2c.1,0,.1,0,.1,0v-2.2c0,0,.2,3.2.2,3.2h0c0-.1.2-1.8.2-1.8l-.2,2,.2-1.8v-1.6c.1,0,0,1.6,0,1.6l.2-.3.2,4.8h0s0-.4,0-.4v2.5c.1,0,.1,0,.1,0v3.7c.1,0,.2-1,.2-1l.2,2.3-.2-2.6.2,2.6h0s0,2.2,0,2.2h0c0,0,.1,1.2.1,1.2v-1.3c-.1,0,0,.3,0,.3h0l.2,3.3v-4c-.1,0,0,3.9,0,3.9l.5-7.2v.3s0,1,0,1v-1.4c.1,0,.1.3.1.3v4.2c.1,0,.3-1.7.3-1.7h0s.2-5.2.2-5.2v.3s.2-5.5.2-5.5v.2s.2,4.9.2,4.9v-6.5c-.1,0,0,6.3,0,6.3l.2-.7v2.1c0,0,0-2.1,0-2.1v-1.1s.1,2,.1,2h0s.2,4.2.2,4.2v-.2s0,.2,0,.2v-1.8c0,0,.1.2.1.2v-.3s.1,2.1.1,2.1v-.5s0,.2,0,.2v-2.5c.1,0,.1.3.1.3v-1.1s.1,1.7.1,1.7v-.7s0,.3,0,.3v-1.3c.1,0,.1,0,.1,0l.2-4.3v.9s0,.2,0,.2v-2c0,0,0,0,0,0v-1.6c0,0,.2,1.8.2,1.8h0c0,0,.2,2.7.2,2.7l-.2-3.2.2,3h0s.1,1.1.1,1.1v-.2s0-.7,0-.7v3.2c.1,0,.2.5.2.5v-1.3c.1,0,.1.6.1.6l.2-2.7v2.7c-.1,0,0-2.4,0-2.4l.2,2.9v-.5s0-.4,0-.4v.8c0,0,.2-.5.2-.5v1.2c.1,0,0-1.4,0-1.4l.2,1,.2-3.8-.2,3.9.2-3.9v1.4c0,0,0-1.5,0-1.5l.2,1.4v-.3s0,1.5,0,1.5v-.6c0,0,0-.2,0-.2v4.4c.1,0,.2,1.2.2,1.2v-1.3c0,0,.1.6.1.6v-1.4c.1,0,0,1.5,0,1.5l.2-.4.2,2.8-.2-2.9.2,2.3h0s0,.2,0,.2v-2.5c.1,0,.1.2.1.2v-.5s.1,1.6.1,1.6v-.5s0,.3,0,.3v-2.1c.1,0,.1.2.1.2v-.6c0,0,.1,1,.1,1v-.4c0,0,.2-4,.2-4l-.2,4.1.2-2.2.2,2.9-.2-3,.2,2.9v-.4s.2,1.2.2,1.2v-.2s.2,1.4.2,1.4v-2.3c0,0,0,2.2,0,2.2h0c0-.1.1,4.3.1,4.3v3.9c.1,0,0-4.1,0-4.1l.2,2.8.2-7.3v.3s0,.8,0,.8v-1.5c0,0,0,.1,0,.1v-2.1c.1,0,0,2.2,0,2.2l.2-.8v1.9c0,0,0-1.9,0-1.9l.2.8h0s0-2,0-2h0v-2.8c.1,0,0,3,0,3l.2-1.8v.7c0,0,.2-1.4.2-1.4v.3s0-.1,0-.1v2.5c.1,0,.1,0,.1,0v.8c0,0,.2-2,.2-2h0c0,.1,0-2.9,0-2.9v3.1c0,0,0-.6,0-.6v3.1c.1,0,.2-1,.2-1l.3-8.5h0c0,0,.2,1.5.2,1.5v-.3h0v.6s.2-2.8.2-2.8h0c0,.1,0-.9,0-.9v1.5c0,0,.2,2.5.2,2.5v-2.7c-.1,0,0,1.9,0,1.9v-.2s.2,1.9.2,1.9h0c0,0,0,.4,0,.4v-1.8c0,0,.2-2.2.2-2.2v2.4c0,0,0-.9,0-.9v.5c0,0,.2-1.2.2-1.2v.2s0-.3,0-.3v1.6c0,0,0,0,0,0l.2,4.8v-.2s.2.9.2.9v-1.2c0,0,0,1.2,0,1.2v-.3s.2,3,.2,3h0c0,0,.1,1.8.1,1.8v-2.1c-.1,0,0,1.7,0,1.7h0c0,0,.2,2.2.2,2.2v-.4s0,.8,0,.8v-2.9c.1,0,.1,0,.1,0v-1.1c0,0,.1,2.1.1,2.1v-.7s0,.2,0,.2v-2.8c.1,0,.1.3.1.3v-1.2c0,0,.2,2.4.2,2.4v-.2s0,1.7,0,1.7v-1c.1,0,.3,3.3.3,3.3l-.2-4.7.2,4.6.2-3.7h0c0,0,0-1.3,0-1.3v1.9c0,0,0,0,0,0v.5c0,0,.2-1.3.2-1.3v.2s0-.6,0-.6v2.7c0,0,.2,1.3.2,1.3v-1.4c0,0,.1.7.1.7v-1.4c.1,0,0,1.6,0,1.6l.2-.9v.8c0,0,.2-.8.2-.8v.2s.2-2.9.2-2.9l-.2,3.1.2-2.9v.8c0,0,.2-1,.2-1v.4s.2-3.3.2-3.3l-.2,3.6.2-3.4v-.4s.2,4.8.2,4.8h0c0-.1,0,1.4,0,1.4v-1.4c.1,0,.3,3.2.3,3.2l-.2-3.2.2,3.1v-.2s.1,1.1.1,1.1v-.5c0,0,0,.3,0,.3v-2.3c.1,0,.1,0,.1,0h0s.1-2.2.1-2.2v2.3c-.1,0,0-2.3,0-2.3v1.2c0,0,.2-1.4.2-1.4h0c0,.1.2-8.1.2-8.1l.2.8v-1.4c0,0,0,1.1,0,1.1l.2-1.8-.2,2.1.2-2v.7c0,0,.2-2,.2-2v.2s0,0,0,0v-1.3c0,0,.1.3.1.3h0c0,0,.1,3.1.1,3.1l.2,5.4-.2-5.5.2,5.2h0c0-.1.1,1.8.1,1.8v-.8s.2.8.2.8l-.2-1.3.2,1.2v-1.7c.1,0,0,1.8,0,1.8l.2-.8h0s0,1.9,0,1.9h0s.1,2.1.1,2.1v-1.4c0,0,0-.4,0-.4v4.6c.1,0,.1,0,.1,0v3.6c.1,0,.2-2.1.2-2.1h0v.2s0-2.6,0-2.6v2.2c0,0,.1.4.1.4v-1.8c0,0,.1,0,.1,0h0s.2-4.8.2-4.8h0c0,0,0-1.9,0-1.9v.2s0,.1,0,.1l.2-6v-.4c0,0,.2,2.6.2,2.6v-.3s.1,1.3.1,1.3v-.6s.2-3.1.2-3.1v3.2c-.1,0,0-.9,0-.9l.2,2.6h0c0-.1.1-2.3.1-2.3v2.4c-.1,0,0-1.6,0-1.6l.2,4h0c0,0,.2-1.9.2-1.9l-.2,2.3.2-1.9h0v1c.1,0,.2-1.5.2-1.5v.2s.2-5.7.2-5.7l-.2,5.7.2-5,.2,3.7h0c0-.1,0-.2,0-.2v3.5c.1,0,.1,0,.1,0l.2,4.5-.2-4.6.2,4.5v-1.5c0,0,.2,3.3.2,3.3h0s.2,2.5.2,2.5v-2.6c-.1,0,0,2.2,0,2.2l.2-3.7-.2,3.9.2-3.3h0v-.2s.1,1.1.1,1.1v-.3s.1-.9.1-.9v1.1c0,0,0-.2,0-.2l.2,3.6v-.5s.3-6.9.3-6.9l-.2,7.2.2-7.2h0c0,.1.1-3,.1-3v.2s.2-1.2.2-1.2v.3s.1-1.3.1-1.3v1.4c0,0,0-.4,0-.4v1.4c0,0,.2-2,.2-2h0s.2,5.1.2,5.1l-.2-5.2.2,5.1.2-3.4-.2,3.5.2-3.3h0c0,.1.2-2.8.2-2.8v.3s0-.2,0-.2v1.7c.1,0,.2-.3.2-.3v.3s.1-3.2.1-3.2v.2s0-2.2,0-2.2v2.3c0,0,.1-1,.1-1v3.6c.1,0,.2-.4.2-.4l.2,2.9-.2-3.1.2,3.1.2-.6v1.5c-.1,0,0-1.3,0-1.3l.2.9v-2.7c0,0,0,2.6,0,2.6h0c0,0,.1,2.3.1,2.3h0c0-.1,0,.2,0,.2v-1.7c.1,0,.2.4.2.4h0c0-.1,0,2.3,0,2.3v-.3s0,.3,0,.3v-1.4c.1,0,.1,0,.1,0l.2-3-.2,3.1.2-3.1v.2s.1-3.4.1-3.4h0c0,0,.2-5.3.2-5.3l-.2,5.4.3-3.1v-.2s.2,3.1.2,3.1l.2-1.6v2.5c-.1,0,0-2.5,0-2.5h0c0,.1,0-1.2,0-1.2v.7c.1,0,.1-.7.1-.7v3.2c.1,0,.1-.3.1-.3l.2-.2v1.1c-.1,0,0-.9,0-.9v-.2s.2,2.1.2,2.1v-.5s0,1.3,0,1.3v-.4c0,0,.4,4.2.4,4.2l-.2-4.5.3,4.4v.6s.2-3.8.2-3.8l.2-5.3-.2,5.4.2-5.2v.2s.2-3.5.2-3.5v.2s0-1.3,0-1.3v4.1c.1,0,.1-.3.1-.3v1c.1,0,.2-1.2.2-1.2h0s.1-1.4.1-1.4v2c0,0,0-.2,0-.2v2.5c.1,0,.2-.1.2-.1l.2-2.2v.4s.2,2.7.2,2.7v-2.8c-.1,0,0,1.8,0,1.8v-.8s.2,1.8.2,1.8h0c0-.1.2,4.8.2,4.8v-.2s.2-2.4.2-2.4v2.6c-.1,0,0-2.4,0-2.4v1.1c0,0,.2-1.2.2-1.2h0c0,.1.3-5.2.3-5.2l-.3,5.5.3-5.4.2,1.7-.2-2,.2,1.8.2-1.4v2.3c0,0,0-2.3,0-2.3l.2,3.4-.2-3.5.2,3.1v-.4s.2,1.4.2,1.4h0l.2,4.8-.2-5.5.2,5.4.2-3.6-.2,4.1.2-3.8v2c0,0,.2-1.4.2-1.4l.3-9.1-.3,9.2.3-9h0c0,0,.1-3,.1-3h0c0,.1.2-2.5.2-2.5l-.2,2.8.2-2.7.2,2.3v-3.7c-.1,0,0,3.5,0,3.5h0s0,1.7,0,1.7l.2,1.8v-.2s.2,5,.2,5h0c0,0,.2,3,.2,3l-.2-3.2.2,3.1h0c0-.1.1,2.8.1,2.8v-.4s0,.3,0,.3v-1.9c.1,0,.2.2.2.2v-1.9c0,0,.2,2.7.2,2.7h0s.1,1.2.1,1.2v-1.5c-.1,0,0,.7,0,.7v-2.9c.1,0,0,3,0,3l.2-1.7v.6c0,0,.1-2,.1-2l.2-2.9-.2,3,.2-2.6h0c0,0,.1,2.2.1,2.2v-.2s0,.6,0,.6v-3.1c.1,0,.1,0,.1,0h0c0,0,.2-3.1.2-3.1v3.7c.1,0,0-3.8,0-3.8l.2,3.2v.8c.1,0,.2-1.3.2-1.3l.2.9v-1.5c-.1,0,0,1.4,0,1.4h.2c0-.1,0,1,0,1v-.6c0,0,.3.7.3.7v-2.3c0,0,0,2.2,0,2.2v-.2s.1,1.8.1,1.8v-.8c0,0,0,.3,0,.3v-5.4c.1,0,.1,0,.1,0l.2-2.3v.3s.2-2.2.2-2.2h0c0,.1,0,.1,0,.1l.2,6.4v-.4s.1,2.1.1,2.1v-.4s.2,1.9.2,1.9v-1.2s0,.1,0,.1v-5.5c.1,0,.1,0,.1,0l.2-4.1v1.4h0v-.2s.1,3.6.1,3.6v-.2s0,.9,0,.9v-1.5c0,0,.1.4.1.4v-.2s0,1.5,0,1.5v-1.1c0,0,.4-6.9.4-6.9l-.3,7.3.3-7.1v.3s.1-.9.1-.9v.4c0,0,.1-2,.1-2v1.9c0,0,.2,4.8.2,4.8v-.6c0,0,.1-.4.1-.4v2c.1,0,.1,0,.1,0v2.4c.1,0,0-2.7,0-2.7l.2,1.2.5-11.7-.5,11.8.6-9.4.2,2.1-.2-2.2.2,1.8.2-3.7-.2,3.8.2-3.6v-.2s.1,1.1.1,1.1v-.6c0,0,0,0,0,0v-2.6c.1,0,.1.3.1.3v-14.6c.1,0,.2,10.1.2,10.1l.2,19.9h0c0,0,.6,10.3.6,10.3l-.6-10.4.6,9.6.2-4.4v.3s0,0,0,0v-2.6c.1,0,.1.4.1.4v-.4s.2,1.3.2,1.3h0c0,0,.1,3.6.1,3.6v-3.7c-.1,0,0,2.2,0,2.2l.3-4.6-.3,4.7.3-4.4.2,4.7v-.5s0,0,0,0v-3.5c.1,0,.1.1.1.1v-.5s.2,4,.2,4v-.3s0,.4,0,.4v-2.1c0,0,0,0,0,0l.2-1.5v.2s.1,1.5.1,1.5v-1.7c0,0,0,1.5,0,1.5v.2s.2-3.9.2-3.9l.2.5v-1.6c-.1,0,0,1.4,0,1.4l.2-.8v1.5c0,0,0-1.5,0-1.5l.2.7v-1.8c0,0,0,1.4,0,1.4h0c0,0,.2-4.1.2-4.1h0c0,0,0-2.3,0-2.3v1.2c0,0,.1.5.1.5v-.8c.1,0,.3,1,.3,1l-.2-1.1.2.7v-.2s.1,5.6.1,5.6v-.3s.2.9.2.9v-1.1c-.1,0,0,.7,0,.7v-.4s.2,4.2.2,4.2h0s.1,2.1.1,2.1v-.8c0,0,.2-2.5.2-2.5v2.7c-.1,0,0-2.1,0-2.1l.3-7.8v.6s.2,2.7.2,2.7v-2.7c-.1,0,0,2.4,0,2.4l.2-2.2-.2,2.3.2-2.3h0l.2,3.1v-.5s0,0,0,0l.2-2,.2,2.2v-3.7c-.1,0,0,3.5,0,3.5h0c0,0,0,2.6,0,2.6v-1.5c0,0,.1.4.1.4v-2.9c.1,0,.1.2.1.2l.2,1.4-.2-1.5.2,1.2.2-2.4v.4s.2,3.4.2,3.4l-.2-3.5.2,3.3.4,4.7v-.2s.1-2.4.1-2.4v2.5c-.1,0,0-1,0-1l.2,4.1-.2-4.1.2,3.8v.3s.2-2.9.2-2.9v.5c0,0,.2-3,.2-3h0c0,0,0,.1,0,.1v-3.6c0,0,0,.2,0,.2v-1c.1,0,.2.8.2.8v1.2c0,0,0-1.3,0-1.3h.2c0,.1.1-2.8.1-2.8v3c0,0,.1-1.7.1-1.7v.2s.1-5.1.1-5.1h0s.2-7.4.2-7.4l-.2,7.5.2-7.4h0s0-2.1,0-2.1h0c0,0,0-13.5,0-13.5v13.6c.1,0,.1,0,.1,0l.3,22.5v-.7c0,0,0,0,0,0v3.6c0,0,.2,4,.2,4v-.7c0,0,0,0,0,0v-2.1c0,0,0,.1,0,.1v-3.8c0,0,.2,1.3.2,1.3l.2-.8v1.6c0,0,0-1.5,0-1.5l.2,1.9v-3.1c-.1,0,0,3,0,3l.2-1.4-.2,1.8.2-1.8h0c0,.1.1-3.5.1-3.5v-.3c.1,0,.2.8.2.8v-.5s0,.4,0,.4l.2-3h0s0,0,0,0v-1.9c0,0,.2.8.2.8v1c0,0,.2-1.6.2-1.6v.4s.1-3.4.1-3.4v1s0-.3,0-.3v5.9c.1,0,.1-.3.1-.3v.9s.2-2.4.2-2.4v.2s0-.6,0-.6v2.8c0,0,.1-.3.1-.3v1.1c.1,0,.2-.7.2-.7v-1.7c0,0,.2,2.5.2,2.5h0c0-.1,0,.3,0,.3v-2.4c.1,0,.1.3.1.3v-1.7c.1,0,.2.5.2.5l.2,2.5-.2-2.6.2,2.4v-.7s.2,1.9.2,1.9v-.3s.2,1.5.2,1.5v-.3s0,.6,0,.6v-1.6c.1,0,.1.2.1.2v-3.7c.1,0,.2,1,.2,1v1.4c0,0,.2-1.6.2-1.6h0s.1-2.2.1-2.2v2.1c0,0,.2,3.1.2,3.1v-.4s0,0,0,0v-3.6c.1,0,.1,0,.1,0v-1.9c0,0,.2,1.6.2,1.6v2.2c.1,0,0-2.3,0-2.3l.2,1.9v-.4c0,0,.2,1.1.2,1.1v-.4s0,2.3,0,2.3v-1c.1,0,.1,0,.1,0v-.2s.2,2.2.2,2.2v.6s.2-2.1.2-2.1l.2-2.9-.2,3,.3-2h0s.2-4,.2-4h0s.2,2.5.2,2.5l-.2-3,.2,2.9v.2s.2-1.5.2-1.5v.3s.2-3.2.2-3.2h0s0-1.4,0-1.4v1.8c0,0,.1-1.7.1-1.7l.2.7v-1.7c-.1,0,0,1.4,0,1.4v.2s.1-.9.1-.9v.4s0-.2,0-.2l.2,5.1h0c0-.1,0-.2,0-.2v1.5c.1,0,.1-.2.1-.2v.2s.1-1.9.1-1.9v1.4s0-.1,0-.1v1c0,0,.2-.5.2-.5v.2s.2-2.3.2-2.3v.2s.2,6.1.2,6.1l-.2-6.7.2,6.5v.7c0,0,.2-2.6.2-2.6l.2,1.3-.2-1.7.2,1.4v1.7c.1,0,.2-1.5.2-1.5l.2-3.5-.2,3.5.2-3.4h0c0-.1.2,1.8.2,1.8v-.2s.2,4.4.2,4.4v2.7c0,0,.2-1.4.2-1.4l.2-5.6-.2,5.7.2-5.5v-.3s.1,2.1.1,2.1v-.6c0,0,0,.3,0,.3l.2-3.6v.2s.2-2.3.2-2.3h0c0,.1,0-.4,0-.4v.8c0,0,.1-.5.1-.5v.4s.1-1.4.1-1.4h0c0,0,.2-.6.2-.6v1.1c-.1,0,0-1,0-1l.2,7.3-.2-7.9.2,7.8h0c0-.1,0,.8,0,.8v-.4c.1,0,.1.4.1.4v-2.5c0,0,.1,2.2.1,2.2h0l.2,5.5-.2-5.6.2,5.4.2-3.7-.2,3.9.2-3.8v.3s0-1.1,0-1.1v.3c0,0,.2-1.2.2-1.2v1.3c-.1,0,0-.9,0-.9v3.6c.1,0,.2-.6.2-.6h0c0,0,.1-2.4.1-2.4v.4s0-.6,0-.6v1.8c.1,0,.1-.2.1-.2v.7c0,0,.2-1.5.2-1.5v.3s.1-2.1.1-2.1v2.3c-.1,0,0-1.4,0-1.4v1.5c0,0,.2-.3.2-.3h0c0-.1.1,1.6.1,1.6v.6s.2-2.1.2-2.1h0s.2-7.6.2-7.6l-.2,7.7.2-7.4v1.5c0,0,.2-1,.2-1l.2-4.2h0s.3,7.5.3,7.5l-.3-7.9.3,7.7v-1.1c0,0,.2,1.6.2,1.6v-.4s0,.5,0,.5v-3c.1,0,.1.1.1.1h0c0,0,.1-3.3.1-3.3h0c0,0,0-.2,0-.2v1c.1,0,.2.5.2.5v-2.5c.1,0,.1.1.1.1v-.8c.1,0,.2,1.3.2,1.3v-.3s.1,3.6.1,3.6v-.3s0,.2,0,.2v-3.1c.1,0,.2.3.2.3v-.2s.2,3.1.2,3.1h0c0,0,0,.6,0,.6v-1.2c.1,0,.1.1.1.1l.2-4.2h0s.2,2.6.2,2.6l-.2-2.6.2,2,.2-3.7h0c0,.1.2,2.4.2,2.4v-.5s0-.4,0-.4l.2,1.6v-.2s0-.3,0-.3v1.5c0,0,0,0,0,0l.2,1.2-.2-1.2.2.9v-.2c0,0,0,.9,0,.9v-.3c.1,0,.3,2.6.3,2.6l-.2-2.7.2,2.6v-.2c0,0,.2.8.2.8v-.2s.2,4.1.2,4.1l-.2-4.2.2,4.2.2-1.9-.2,2.1.2-2.1v.3s0-1.9,0-1.9v1.3c0,0,.1-.1.1-.1v2.1c.1,0,.1-.2.1-.2l.2,2.5-.2-2.6.2,2.5.3-4.3-.2,5.5.3-5.4v4.8c.1,0,.2-.6.2-.6v.3s.2-2.6.2-2.6h0c0,.1.1-1.7.1-1.7v2c0,0,0,0,0,0v1.9c0,0,.2-2.2.2-2.2v.2s.2-5.6.2-5.6l-.2,5.7.2-5.1.2,5.1-.2-5.2.2,4.9.3-2.2-.3,2.4.3-2.2v.3s.2-2.7.2-2.7l.2-9.3-.2,9.4.2-8.6v3.7c.1,0,0-3.7,0-3.7l.2,3.3v-2.4c.1,0,.2,1.4.2,1.4l.2,3.9-.2-4,.2,3.8.2-1.7v2.3c-.1,0,0-2.2,0-2.2l.2,3.8h0c0-.1.2-2.6.2-2.6v3.5c-.1,0,0-3.5,0-3.5v-.6s.2,1.4.2,1.4h0c0,0,.1,2.9.1,2.9v-.2s.2,6.7.2,6.7l-.2-6.7.2,6.7h0c0,0,.2-7.4.2-7.4h0c0,.1,0-2.4,0-2.4v1.6c.1,0,.3-2.2.3-2.2l-.2,2.5.2-2.3.2,1.4v-2.7c-.1,0,0,2.7,0,2.7h0c0-.1.1,3.2.1,3.2v-.2s.2,4.4.2,4.4v-4.5c-.1,0,0,4.3,0,4.3v.3s.2-3.2.2-3.2v1.6c.1,0,0-2.3,0-2.3v1.6c.1,0,.1,0,.1,0v-2c.1,0,.1.1.1.1l.3-4.2-.2,4.5.3-4.1v.9c0,0,.2-1.3.2-1.3h0c0,.1.1-.7.1-.7v.7s0,0,0,0v-1.8c0,0,0,.2,0,.2l.2-2.7v.2s.2,1.6.2,1.6v-.4s.2-1,.2-1v1.5c0,0,0-1.4,0-1.4v.4s.1-1.4.1-1.4v.2s.2,2.3.2,2.3v-.2s.2,4.7.2,4.7v-.2s0,.6,0,.6v-1.1c.1,0,.1.2.1.2h0c0,0,.2-2.6.2-2.6l.2,5.6v-.2s0-.7,0-.7v1.4c0,0,0-.9,0-.9v3.1c.1,0,.2-.5.2-.5v.2s.2-2.6.2-2.6v.3s0-.7,0-.7v1.6c.1,0,.1-.1.1-.1h0s0,1.5,0,1.5h0c0,0,0,.4,0,.4v-2.1c.1,0,.1.2.1.2v-.2s.2,4.4.2,4.4v1.6c.1,0,0-1.6,0-1.6l.2.9h0s.1-2.5.1-2.5v.5c0,0,0,.3,0,.3v-3.2c.1,0,.1.2.1.2v-1.7c0,0,.2,1.9.2,1.9v-.3s.2,1.4.2,1.4h0s.1-2.2.1-2.2v2.4c-.1,0,0-1.3,0-1.3v2.2c.1,0,0-2.3,0-2.3l.2,1.7.2-2.7-.2,2.8.2-2.4.2,3.3-.2-3.4.2,2.6v-1c0,0,.2,3.3.2,3.3l.2,2.4-.2-2.5.2,1.7.4-5.8v.2s.2.9.2.9v-1.8c0,0,0,1.7,0,1.7v-.4s.2,2.6.2,2.6v-.2s.2,4.7.2,4.7l-.2-4.8.2,4.6.2-1.3v2.2c0,0,0-1.9,0-1.9v-2.4c0,0,.2,2.5.2,2.5l.2-.9-.2,1.9.2-1.5h0c0,0,.1-3.2.1-3.2v.2s0-.2,0-.2v2.8c.1,0,.2-.3.2-.3v.5s.1-2,.1-2h0c0,.1.2-2.3.2-2.3v.3s0,.1,0,.1v-1.8c.1,0,.2.2.2.2l.2-2.5-.2,2.6.2-2.2.2,1.7-.2-1.8.2,1.1.2-2.3v2.4c-.1,0,0-1.8,0-1.8v2.7c0,0,.2-.8.2-.8h0c0,.1.2-2.2.2-2.2l.2,1.2v-2.1c-.1,0,0,2.1,0,2.1l.2-.4v1.2c-.1,0,0-1.2,0-1.2v.3s.1-2,.1-2v1.5c0,0,0-.2,0-.2l.2,2.6v-.3s0,.3,0,.3v-2.5c.1,0,.1.1.1.1v-.4s.1,3.2.1,3.2h0c0,0,.1,3.9.1,3.9v-4c-.1,0,0,3.6,0,3.6l.2-7,.2.7v-1.1c-.1,0,0,1,0,1v-.3s.2.9.2.9h0c0,0,0-.3,0-.3v2.9c.1,0,.1,0,.1,0v.3c.1,0,.2-1.6.2-1.6v.2s.2-4.4.2-4.4v.6s.1.9.1.9v-1.2c0,0,0,.1,0,.1l.2-5.3v.3s.1-.2.1-.2v3.1c0,0,.3-.6.3-.6v1.2c-.1,0,0-1.1,0-1.1v-3.3c0,0,.2,3.5.2,3.5v.5s.2-1.7.2-1.7v.2s0-.4,0-.4v3.3c.1,0,.1-.1.1-.1v4c.1,0,0-4.1,0-4.1l.2,1.6v-3.6c.1,0,.2,1.4.2,1.4v.2s.1-1.6.1-1.6v.2s0-.4,0-.4v1.9c.1,0,.3,3.9.3,3.9v-4c-.1,0,0,3.6,0,3.6l.2-3.2-.2,3.3.2-3.2v-1.2"/>
  <g class="st31">
    <image width="1024" height="320" transform="translate(519 330.5) rotate(-180) scale(.4)" xlink:href="index_figure-1.png"/>
  </g>
  <path class="st3" d="M80.7,314.5c-.4,4.6.8,11,2.7,16s.9,2.3,1.5,3.2l5.7,15.2"/>
  <path class="st4" d="M61,264.2c1.4.5,2.9,1.2,4.6,1.9,4.6,2.1,8.4,16.2,12,21.9s3.5,20.7,3,26.4"/>
  <path class="st3" d="M65.8,357.4c-.3-.9-7.5-29-10.7-43.1s-5.9-33.3-5.7-37.8,2.9-8.7,5.4-11.4,3.7-1.7,6.2-.9"/>
  <path class="st4" d="M61,289.7c3.3,7.5,10.6,12.2,19.8,16.2,4.7,2.1,14,.6,20.6,0,6.6-.6,61.9-4.5,78.7-4.5s51.2,1.2,51.2,1.2"/>
  <path class="st3" d="M61,255c-8.3,4.3-7.8,7.7-9.5,14.7s6.2,12.6,9.5,20.1"/>
  <path class="st4" d="M231.4,220.1l-5.1.3c-5.1.3-41.6,2.4-62.6,4.8-21,2.4-32.1,5.4-58.5,12.6-26.4,7.2-25.5,9.3-39.1,14.9-2,.8-3.6,1.6-5,2.3"/>
  <text class="st20" transform="translate(80.9 230.3)"><tspan x="0" y="0">Femur</tspan></text>
  <text class="st18" transform="translate(90.8 344.6)"><tspan x="0" y="0">Tibia</tspan></text>
  <polygon class="st30" points="108.9 266 120.4 253.7 116.6 270.1 108.9 266"/>
  <polygon class="st30" points="195 253.9 181.9 243.3 198.6 245.9 195 253.9"/>
  <text class="st19" transform="translate(101.4 279.8)"><tspan x="0" y="0">TF1</tspan></text>
  <text class="st19" transform="translate(200 255)"><tspan x="0" y="0">TF2</tspan></text>
  <text class="st22" transform="translate(204.1 314.1)"><tspan x="0" y="0">GFP</tspan></text>
  <text class="st15" transform="translate(167.1 313.2)"><tspan x="0" y="0">Muscle</tspan></text>
  <text class="st18" transform="translate(390.8 296.5)"><tspan x="0" y="0">TF2 membrane potential</tspan></text>
  <text class="st14" transform="translate(256.3 264.9) rotate(-90)"><tspan x="0" y="0">10 µm</tspan></text>
  <g>
    <rect x="263" y="336.6" width="38.3" height="2.9"/>
    <rect x="263" y="312.2" width="2.9" height="27.1"/>
    <text class="st14" transform="translate(259.3 337.4) rotate(-90)"><tspan x="0" y="0">5 mV</tspan></text>
    <text class="st14" transform="translate(270.3 347.6)"><tspan x="0" y="0">1 sec</tspan></text>
  </g>
  <text class="st18" transform="translate(273.3 207.6)"><tspan x="0" y="0">Leg position</tspan></text>
  <text class="st16" transform="translate(461.6 270)"><tspan x="0" y="0">Target edge</tspan></text>
  <text class="st18" transform="translate(341.3 231.9)"><tspan x="0" y="0">Flex</tspan></text>
  <g>
    <line class="st3" x1="337.6" y1="226.3" x2="337.6" y2="233.4"/>
    <polygon points="334.7 231.4 337.6 242.3 340.5 231.4 334.7 231.4"/>
  </g>
  <g class="st29">
    <image width="1574" height="864" transform="translate(682.4 -108.9) rotate(119.5) scale(.3)" xlink:href="index_figure-2.png"/>
  </g>
  <text class="st17" transform="translate(305.3 163.1)"><tspan x="0" y="0">50 µm</tspan></text>
  <line class="st7" x1="380" y1="168.5" x2="305.3" y2="168.5"/>
  <text class="st21" transform="translate(96.8 165.7)"><tspan x="0" y="0">X-ray cross section</tspan></text>
  <g>
    <path class="st9" d="M235.7,49.3c-14.9-10.1-38.7-11.1-59-13-25.5.9-20.6,3-46.1,3.8-18,1.9-15.4,1.4-25.4,14.8-5.8,7.7,12.8,18.1,21,11.4"/>
    <path class="st9" d="M253.6,73.6c2.3,2.8,5.7,9.7-3.1,10.2,8.2,8.2,1.3,12.7-10.4,9.6-20.7,4.3-78-2.2-87.3-15.7"/>
    <path class="st9" d="M63.2,128.5h.1c1.5-.4,2.7-.4,2.8,0h0c0,.4-1,1-2.5,1.4h-.3c-1.5.5-2.7.5-2.8.1h0c0-.4,1-1,2.5-1.4h.1Z"/>
    <path class="st9" d="M78.9,124.9c-1.9.8-3.6,1.1-3.8.6-.2-.5,1.1-1.6,3-2.4,1.9-.8,3.6-1.1,3.8-.6.2.5-1.1,1.6-3,2.4Z"/>
    <path class="st9" d="M70.3,127.2c.1.4-.6.9-1.6,1.2-1,.3-1.9.3-2,0-.1-.4.6-.9,1.6-1.2,1-.3,1.9-.3,2,0Z"/>
    <path class="st9" d="M75,125.5c.1.4-.7,1.1-2,1.5-1.2.4-2.3.4-2.5,0-.1-.4.8-1.1,2-1.5,1.2-.4,2.3-.4,2.5,0Z"/>
    <line class="st12" x1="57.9" y1="129.2" x2="61.8" y2="129.4"/>
    <path class="st9" d="M105,88.5h0c1,.3-.2,6.5-2.7,13.6l-1.1,3.1c-2.5,7.1-5.3,12.7-6.3,12.4h0c-1-.3.2-6.5,2.7-13.6l1.1-3.1c2.5-7.1,5.3-12.7,6.3-12.4h0Z"/>
    <path class="st9" d="M94.7,117.3c.4.8-2.2,2.8-5.6,4.3-3.4,1.5-6.6,2.1-6.9,1.3-.4-.8,2.2-2.8,5.6-4.3,3.4-1.5,6.6-2.1,6.9-1.3Z"/>
    <path class="st9" d="M116,88.1c-.2,1.1-3,2.2-6.2,2.4-3.2.2-5.7-.6-5.4-1.7.2-1.1,3-2.2,6.2-2.4,3.2-.2,5.7.6,5.4,1.7Z"/>
    <rect class="st25" x="155.2" y="49.5" width="81.8" height="29.4"/>
    <path class="st9" d="M62.3,72.3c.3,3.4-1.1,6.3-3,6.5-2,.2-3.8-2.5-4.1-5.8-.3-3.4,1.1-6.3,3-6.5,2-.2,3.8,2.5,4.1,5.8Z"/>
    <path class="st9" d="M61.5,63.6c.1,1.4-.8,2.7-2,2.8-1.2.1-2.3-1-2.4-2.4-.1-1.4.8-2.7,2-2.8,1.2-.1,2.3,1,2.4,2.4Z"/>
    <path class="st9" d="M62.2,60c1.2.7,1.9,1.7,1.5,2.4-.4.7-1.6.7-2.8,0-1.2-.7-1.9-1.7-1.5-2.4.4-.7,1.6-.7,2.8,0Z"/>
    <path class="st9" d="M58.8,62.7c-1.6,2.4-3.7,4-4.5,3.4-.8-.5-.1-3,1.5-5.4,1.6-2.4,3.7-4,4.5-3.4.8.5.1,3-1.5,5.4Z"/>
    <path class="st9" d="M80.5,87.1c-2.6,2.4,0,5.9-.8,7.9-19.3,3.1,8.5,18.6,7.9-10.5"/>
    <path class="st9" d="M82.6,87.3c.2.6-2.2,2.2-5.3,3.4-3.2,1.2-6,1.7-6.2,1.1-.2-.6,2.2-2.2,5.3-3.4,3.2-1.2,6-1.7,6.2-1.1Z"/>
    <path class="st9" d="M275.5,140.4h0c1.1.4,1.9,1,1.8,1.4h0c0,.4-1,.4-2,0h-.2c-1.1-.4-1.9-1-1.8-1.4h0c0-.4,1-.4,2,0h0Z"/>
    <path class="st9" d="M278.5,111h.1c1.5.2,2.7.7,2.6,1.1h0c0,.4-1.3.5-2.8.3h-.3c-1.5-.2-2.7-.7-2.6-1.1h0c0-.4,1.3-.5,2.8-.3h.1Z"/>
    <path class="st9" d="M258.7,109.8c2.4.7,4.5.9,4.7.3.2-.6-1.7-1.7-4.1-2.4-2.4-.7-4.5-.9-4.7-.3-.2.6,1.7,1.7,4.1,2.4Z"/>
    <path class="st9" d="M269.3,110.7c-.1.6,1.1,1.2,2.8,1.4,1.7.2,3.1,0,3.2-.6.1-.6-1.1-1.2-2.8-1.4-1.7-.2-3.1,0-3.2.6Z"/>
    <path class="st9" d="M263.3,109.6c0,.6,1.2,1.5,2.8,1.9,1.6.4,3,.2,3.1-.4,0-.6-1.2-1.5-2.8-1.9-1.6-.4-3-.2-3.1.4Z"/>
    <line class="st12" x1="282" y1="113" x2="280.6" y2="112.3"/>
    <line class="st12" x1="280.5" y1="111.1" x2="283.4" y2="111.1"/>
    <path class="st9" d="M235.1,101.4c41.3,15.7,9.9-.8,2.1-1.5"/>
    <path class="st9" d="M200,102.5c0,.5-1.1.8-2.5.8s-2.5-.4-2.5-.8,1.1-.8,2.5-.8,2.5.4,2.5.8Z"/>
    <path class="st9" d="M204.1,103c0,.3-1.1.6-2.3.6s-2.3-.3-2.3-.6,1.1-.6,2.3-.6,2.3.3,2.3.6Z"/>
    <path class="st9" d="M207.1,103.2c0,.3-.8.5-1.8.5s-1.8-.2-1.8-.5.8-.5,1.8-.5,1.8.2,1.8.5Z"/>
    <path class="st9" d="M195.1,102.1c-.3.4-2.1-.3-3.9-1.6-1.9-1.3-3.1-2.7-2.8-3.1.3-.4,2.1.3,3.9,1.6,1.9,1.3,3.1,2.7,2.8,3.2Z"/>
    <path class="st9" d="M236.2,101c-.6.7-3.4-.2-6.2-1.9-2.8-1.8-4.5-3.8-3.9-4.5.6-.7,3.4.2,6.2,1.9,2.8,1.8,4.5,3.8,3.9,4.5Z"/>
    <path class="st9" d="M147.7,94.3c2.2,1.1,4.1,1.4,6.9.4"/>
    <path class="st9" d="M156.3,93.7c-4.9,7.1-38.5-16.8-48.9-16.5-17-7.7-22-28.2-15.4-29.7,2.7-15.4,37.3-18.3,45-17.6,20.8,1.8,38.5,7.7,17.9,14.9"/>
    <path class="st9" d="M152.6,56.6c0,1.1-.4,2.1-1.1,2.1-.7,0-1.3-.9-1.4-2,0-1.1.4-2.1,1.1-2.1.7,0,1.3.9,1.4,2Z"/>
    <path class="st9" d="M151.4,59.3c0,.9-.3,1.7-.9,1.7-.5,0-1-.7-1.1-1.6,0-.9.3-1.7.9-1.7.5,0,1,.7,1.1,1.6Z"/>
    <line class="st12" x1="122" y1="56.4" x2="131.1" y2="69"/>
    <line class="st12" x1="141.3" y1="59.4" x2="136.9" y2="69.3"/>
    <path class="st9" d="M46.7,77.7c5.8-4.4,7-8.1,11.6-8.7"/>
    <path class="st1" d="M45,61.6c6.7-2.5,5.4-.8,12.6-1.1"/>
    <line class="st12" x1="46.1" y1="73.1" x2="52.3" y2="71.8"/>
    <line class="st12" x1="45" y1="75.7" x2="49.6" y2="75"/>
    <line class="st12" x1="42.3" y1="79.5" x2="46.5" y2="77.8"/>
    <line class="st12" x1="46.6" y1="81.9" x2="47.1" y2="77.7"/>
    <line class="st12" x1="49.9" y1="78.3" x2="49.9" y2="75"/>
    <line class="st12" x1="54.1" y1="60.3" x2="51" y2="57"/>
    <line class="st12" x1="48.7" y1="58" x2="49.1" y2="59.9"/>
    <path class="st1" d="M284,34.9c22.2,12.1-52.1,14.7-70.4,14.7-40.5-1.4-53.4-2-94.1-.4"/>
    <line class="st12" x1="194.5" y1="42.1" x2="159.1" y2="42.1"/>
    <line class="st13" x1="194.5" y1="42.1" x2="231.1" y2="42.4"/>
    <line class="st8" x1="231.1" y1="42.4" x2="257.7" y2="41"/>
    <line class="st12" x1="195.1" y1="45.4" x2="178.9" y2="41.9"/>
    <line class="st8" x1="195.1" y1="45.4" x2="255.8" y2="47.3"/>
    <line class="st12" x1="131.4" y1="46.2" x2="174.5" y2="46.5"/>
    <line class="st12" x1="177.8" y1="48.4" x2="172.6" y2="44.9"/>
    <line class="st12" x1="172.6" y1="44.9" x2="160.2" y2="43.8"/>
    <line class="st12" x1="160.2" y1="43.8" x2="141.8" y2="46"/>
    <path class="st9" d="M236,49.8c16.2,14,23.4,21.9,13.7,26.6-2.5,4.7-5.1,8.9-11.3,9.4"/>
    <path class="st11" d="M172.5,48.1c-8.2,8,.3,33-12.1,23.3"/>
    <path class="st11" d="M187.3,48.9c-9.7,8.8.6,33.5-15.4,26.4"/>
    <path class="st11" d="M201.9,50c-13.5,12.4,1.1,33.5-19,27.7"/>
    <path class="st11" d="M222.8,49.2c-13.5,12.4-2.7,37.9-30.2,28.6"/>
    <path class="st11" d="M240.1,52.8c-16.9,13-8.7,34.1-32.1,27.7"/>
    <path class="st9" d="M252.4,69c-13.7,6.1-7.1,16-26.1,13"/>
    <path class="st9" d="M157.1,48.4c.4,5.1.5,9.3-2.5,12.9,1.6,6,1.3,9.9-1.4,15.1,0,5.2,2.5,4.3,2.7,6.6.2,2.3.6,2.3.6,4.7"/>
    <line class="st12" x1="146.8" y1="83.6" x2="150.3" y2="80.9"/>
    <line class="st12" x1="150.3" y1="80.9" x2="153.6" y2="80.3"/>
    <line class="st12" x1="154.7" y1="60.8" x2="146.8" y2="62.2"/>
    <line class="st12" x1="116.8" y1="47.6" x2="126.7" y2="44.9"/>
    <line class="st12" x1="126.7" y1="44.9" x2="131.6" y2="46.8"/>
    <line class="st12" x1="107.2" y1="76.5" x2="99" y2="70.7"/>
    <line class="st12" x1="117.1" y1="47.6" x2="119" y2="48.7"/>
    <line class="st12" x1="144.6" y1="23.2" x2="122.6" y2="34.2"/>
    <line class="st12" x1="156.1" y1="23.7" x2="136.3" y2="35.5"/>
    <line class="st12" x1="116" y1="34.7" x2="131.4" y2="25.4"/>
    <line class="st12" x1="144.6" y1="25.9" x2="131.4" y2="33.3"/>
    <line class="st12" x1="76.5" y1="39.3" x2="68.5" y2="30.1"/>
    <line class="st12" x1="70.3" y1="43.7" x2="67.4" y2="35.7"/>
    <line class="st12" x1="78.7" y1="39.1" x2="81.8" y2="30"/>
    <line class="st12" x1="62.3" y1="52.7" x2="56.5" y2="49.9"/>
    <line class="st12" x1="54.8" y1="43.4" x2="66.7" y2="46.8"/>
    <line class="st12" x1="253.3" y1="77" x2="261.6" y2="82"/>
    <line class="st12" x1="251.7" y1="80.9" x2="260.5" y2="83"/>
    <line class="st12" x1="251.7" y1="82" x2="258.3" y2="85.8"/>
    <line class="st12" x1="109.9" y1="36.6" x2="119.3" y2="25.6"/>
    <path class="st1" d="M155.8,32.2c29.4-3.7,31.8-4.1,61.2-7.8,16.8-1.8,61-5.8,71.5,3.7,5.8,10.7-37,11.7-45.5,12.8-29.2,3.7-52.4-1.8-78.9-2.6"/>
    <line class="st12" x1="159.9" y1="33.9" x2="197" y2="31.7"/>
    <line class="st13" x1="197" y1="31.7" x2="235.7" y2="32.2"/>
    <line class="st8" x1="235.7" y1="32.2" x2="287.9" y2="31.7"/>
    <line class="st12" x1="196.5" y1="31.1" x2="197" y2="30"/>
    <line class="st12" x1="156.4" y1="32.8" x2="197.3" y2="30"/>
    <line class="st8" x1="197.3" y1="30" x2="287.4" y2="27.3"/>
    <line class="st8" x1="257.7" y1="21.8" x2="181.4" y2="30.6"/>
    <line class="st13" x1="162.7" y1="35.5" x2="234.6" y2="36.4"/>
    <line class="st13" x1="234.6" y1="36.4" x2="236" y2="32.2"/>
    <line class="st13" x1="234.1" y1="36.4" x2="245.1" y2="40.2"/>
    <line class="st8" x1="275.8" y1="39.9" x2="258" y2="41"/>
    <line class="st8" x1="275.8" y1="39.9" x2="288.5" y2="38.8"/>
    <line class="st12" x1="157.5" y1="29.2" x2="143.2" y2="36.4"/>
    <path class="st9" d="M84.6,37.2c-29.7,1.3-30.3,32.8-11.1,49.6,29.6,8,18.2-37.9,10.5-49.9"/>
    <path class="st10" d="M75.8,48.9c-17.4,4.4-10.4,32.4,6.4,32.4,15.2,0,5.4-40.9-8.5-31.4"/>
    <path class="st9" d="M123.5,93.2c4.7,5.2-1.3,3.8-9.4,4.4"/>
    <path class="st9" d="M52.7,152.1h.1c1.4-.7,2.6-.9,2.8-.6h0c.2.3-.8,1.1-2.2,1.8h-.2c-1.4.8-2.6,1-2.8.7h0c-.2-.3.8-1.1,2.2-1.8h.1Z"/>
    <path class="st9" d="M67.5,145.8c-1.7,1.1-3.3,1.7-3.6,1.3-.3-.4.8-1.7,2.5-2.9,1.7-1.1,3.3-1.7,3.6-1.3.3.4-.9,1.7-2.5,2.9Z"/>
    <path class="st9" d="M59.5,149.6c.2.3-.5,1-1.4,1.5-.9.5-1.9.6-2,.3-.2-.3.5-1,1.4-1.5.9-.5,1.9-.6,2-.3Z"/>
    <path class="st9" d="M63.8,147.1c.2.4-.5,1.2-1.7,1.8-1.1.6-2.2.8-2.4.4-.2-.4.5-1.2,1.7-1.8,1.1-.6,2.2-.8,2.4-.4Z"/>
    <line class="st12" x1="49" y1="154.5" x2="50.1" y2="153.4"/>
    <line class="st12" x1="47.7" y1="153.7" x2="51.5" y2="153.2"/>
    <path class="st9" d="M83.5,133.6c-8.1,10.2-24.4,16.8-2.4-.8"/>
    <path class="st9" d="M257.2,136.7c2.3,1.2,4.5,1.6,4.7.9.2-.7-1.5-2.2-3.8-3.3-2.3-1.2-4.5-1.6-4.7-.9-.2.7,1.5,2.2,3.8,3.3Z"/>
    <path class="st9" d="M267.2,139.2c-.2.5,1,1.3,2.6,1.7,1.6.4,3.1.3,3.3-.3.2-.5-1-1.3-2.6-1.7-1.6-.4-3.1-.3-3.3.2Z"/>
    <path class="st9" d="M261.4,137.5c-.2.6,1,1.6,2.6,2.2,1.6.6,3,.5,3.1,0,.2-.6-1-1.6-2.6-2.2-1.6-.6-3-.5-3.1,0Z"/>
    <line class="st12" x1="277.2" y1="142.2" x2="278.3" y2="144"/>
    <line class="st12" x1="276.4" y1="141.4" x2="279.3" y2="141.6"/>
    <path class="st9" d="M233.2,124.6c39.8,21.5,10.7,0,2.2-1.3"/>
    <path class="st9" d="M203,81.3c5.8,7.7,29.7,45.7,30.2,44.2,5.5-5.5-8-17.6-12.6-25.3-7.4-8.1-7.1-15.4-15.9-22.8"/>
    <path class="st9" d="M157.1,94.5c22.2-.1,49.7-12.9,45.5-15.7,2.9-4.9-6.5-1.4-23.7,3.8"/>
    <path class="st9" d="M230.6,150.3h.1c1.4.7,2.4,1.5,2.2,1.8h0c-.2.3-1.4,0-2.8-.5h-.2c-1.4-.8-2.4-1.6-2.2-1.9h0c.2-.3,1.4,0,2.8.5h.1Z"/>
    <path class="st9" d="M212.5,143.1c2.1,1.6,4.1,2.4,4.5,1.8.4-.6-1-2.4-3.1-4-2.1-1.6-4.1-2.4-4.5-1.8-.4.6,1,2.4,3.1,4Z"/>
    <path class="st9" d="M221.9,147.4c-.3.5.7,1.5,2.3,2.2,1.5.7,3,.9,3.3.4.3-.5-.7-1.5-2.3-2.2-1.5-.7-3-.9-3.3-.4Z"/>
    <path class="st9" d="M216.4,144.6c-.3.6.7,1.8,2.1,2.6,1.4.9,2.8,1.1,3.1.5.3-.6-.7-1.8-2.1-2.6-1.4-.9-2.8-1.1-3.1-.5Z"/>
    <line class="st12" x1="233.2" y1="153.4" x2="232.1" y2="152.3"/>
    <line class="st12" x1="232.4" y1="151.2" x2="235.2" y2="152"/>
    <path class="st9" d="M193.4,119.8c31.9,42.6,8.2,1.9,2.4-.8"/>
    <path class="st9" d="M179.4,81.5c4.1,17.2,12.6,39.3,14.5,38.9,6.5-5.4-3-12.9-5.9-23.3-2-7.9-1.6-9.9-8.6-20.1"/>
    <path class="st9" d="M177.7,80.6c3.1,1,.5-.9.6-1.3,5.4-8-20,5.9-25.8,11-2.4,3.3,2.2,3.3,3.8,3.4,3.6.4,12.6-6.5,18.3-10.6,1.7-1.2,3.9-1.6,4.4-2.3"/>
    <path class="st9" d="M145.7,82.9c-3.8-22.3-21.2-13.2-27.3-5.6,2.7,3.3,7,9.3,20.6,13.3"/>
    <path class="st9" d="M151.8,90.8c-2.3-6-7.2-11.3-12.5-4.1-1,3.8-1.3,1.8-.6,4.5,3.6,2.2,10.8,6.6,13-.4"/>
    <path class="st9" d="M159.4,50.8c.7,1.2-.4,3.1-2.5,4.4-2.1,1.2-4.5,1.3-5.2,0-.7-1.2.4-3.1,2.5-4.4,2.1-1.2,4.5-1.3,5.2,0Z"/>
    <path class="st9" d="M94.3,101.7c-5.5,9.3-10.7,21.1-13.4,30.6,4.6,5.9,7.7-7.5,7.8-8.5,2.6-10.9,3.9-10.6,7.7-19.9"/>
    <path class="st9" d="M120.2,92.5c-6.9,1.8-21.3,4.3-25.8,9-2.1,4.8,32.2-.6,26.6-10.5"/>
    <path class="st9" d="M108.1,77.2c1.2,9.4,13.8,18.5,17.4,15.6,1.7-9.7-10.1-20.4-17-16.3"/>
    <polygon class="st23" points="100.6 106.5 109.9 114.3 109.9 93.3 100.6 85.5 100.6 106.5"/>
  </g>
  <path class="st3" d="M171.3,171.2"/>
  <g>
    <line class="st3" x1="112.5" y1="116.8" x2="149.2" y2="151.6"/>
    <polygon points="111.3 119.1 109.9 114.3 114.8 115.5 111.3 119.1"/>
  </g>
  <path class="st26" d="M356.4,48.2c-8.8,6-25.6,14.7-18.4,19.4,14.9,9.7,32.6,9.8,44.2,11.1,11.5,1.4,20.5,6,29.8,9.5,15.6,5.9,35.2-7.2,39-12.2,5.7-7.4,11.2-22.2-3.3-35.3-14.5-13.1-41.6-18.9-85.3,3"/>
  <path class="st28" d="M329,81.1c-11.2,12.3-11.4,38.3,8,55.5,19.5,17.1,46.1,15.2,55.1,17,9,1.8,5.5-2.5,5.9-9.2.6-10.3-5.7-8.9,0-14.8,6.4-6.8,18.4-12,2.1-24.4-16.5-12.5-33.7-15.3-41.8-17.1-8.1-1.8-24.7-11.9-29.2-6.9Z"/>
  <path class="st28" d="M460.9,61.9c-.5,7.1,1.1,29.5.8,40.4-.2,6.8,6.1,8.8,10.7,17.1,4.1,7.5,3.2,14.9,10.5,25.1,6.8,9.4,8.3,5.1,16,.5,7.8-4.6,15.5-10,14.8-25.1-.7-15.1-12.4-48-24.8-63.6-12.4-15.5-18.4-23.9-20.9-21.4-2.5,2.5-6.6,19.5-7.2,27Z"/>
  <path class="st27" d="M406.4,126.3c-7.7,15.1-8.6,22-1.7,26,7.8,4.5,23,11.5,32.9,11.9,26.2,1.2,45.3-2.9,39.6-24.3-6.2-23.4-18.6-39.6-29.6-40.2-10.9-.6-28.1,13.3-30.6,14.5"/>
  <path class="st2" d="M360.6,133.1c4,3.9,17.5,16.1,19.3,17.1s2,2.3,6.3,2.8,8,1.4,9.5,1.1,3.9-.4,2.6-3.9c-1.3-3.4-3.7-5.1-3.2-6.6s1.7-3.3,1.5-5.6c-.3-2.3,1.8-2.6-3.5-2.4s-14.1-.7-17.4-2.4-7.6-4-10.9-5c-3.3-.9-8.5.8-4.2,5Z"/>
  <g>
    <line class="st3" x1="290.6" y1="145.4" x2="244.8" y2="159.8"/>
    <polygon points="289.2 143.2 294.1 144.3 290.7 148 289.2 143.2"/>
  </g>
</svg>